<svg width="331" height="490" viewBox="0 0 331 490" fill="none" xmlns="http://www.w3.org/2000/svg">
<g clip-path="url(#clip0_285_117)">
<rect x="331" width="490" height="331" rx="16" transform="rotate(90 331 0)" fill="url(#paint0_linear_285_117)"/>
<mask id="mask0_285_117" style="mask-type:luminance" maskUnits="userSpaceOnUse" x="0" y="0" width="331" height="490">
<rect x="331" width="490" height="331" rx="16" transform="rotate(90 331 0)" fill="white"/>
</mask>
<g mask="url(#mask0_285_117)">
<path opacity="0.15" fill-rule="evenodd" clip-rule="evenodd" d="M98 -222.75C98 88.3486 310.836 340.544 573.383 340.544C835.93 340.544 1048.77 88.3486 1048.77 -222.75C1048.77 -533.849 835.93 -786.044 573.383 -786.044C310.836 -786.044 98 -533.849 98 -222.75ZM161.902 -222.75C161.902 -454.078 320.164 -641.605 515.389 -641.605C710.614 -641.605 868.875 -454.078 868.875 -222.75C868.875 8.57721 710.614 196.105 515.389 196.105C320.164 196.105 161.902 8.57721 161.902 -222.75Z" fill="url(#paint1_linear_285_117)"/>
</g>
<path opacity="0.15" fill-rule="evenodd" clip-rule="evenodd" d="M-154 483.013C-154 597.896 -75.4038 691.026 21.5495 691.026C118.503 691.026 197.099 597.896 197.099 483.013C197.099 368.131 118.503 275 21.5495 275C-75.4038 275 -154 368.131 -154 483.013ZM-94.7928 483.013C-94.7928 406.877 -42.7046 345.156 21.5494 345.156C85.8035 345.156 137.892 406.877 137.892 483.013C137.892 559.15 85.8035 620.87 21.5494 620.87C-42.7046 620.87 -94.7928 559.15 -94.7928 483.013Z" fill="url(#paint2_linear_285_117)"/>
</g>
<defs>
<linearGradient id="paint0_linear_285_117" x1="331" y1="165.5" x2="821" y2="165.5" gradientUnits="userSpaceOnUse">
<stop stop-color="#E9442F"/>
<stop offset="1" stop-color="#F29531"/>
</linearGradient>
<linearGradient id="paint1_linear_285_117" x1="1047.34" y1="409.263" x2="1047.34" y2="-851.394" gradientUnits="userSpaceOnUse">
<stop stop-color="white" stop-opacity="0.01"/>
<stop offset="1" stop-color="white"/>
</linearGradient>
<linearGradient id="paint2_linear_285_117" x1="196.631" y1="691.026" x2="196.631" y2="276.109" gradientUnits="userSpaceOnUse">
<stop stop-color="white"/>
<stop offset="1" stop-color="white" stop-opacity="0.01"/>
</linearGradient>
<clipPath id="clip0_285_117">
<rect width="490" height="331" fill="white" transform="matrix(0 1 -1 0 331 0)"/>
</clipPath>
</defs>
</svg>
