<svg width="1215" height="331" viewBox="0 0 1215 331" fill="none" xmlns="http://www.w3.org/2000/svg">
<g clip-path="url(#clip0_285_65)">
<rect width="1215" height="331" rx="16" fill="url(#paint0_linear_285_65)"/>
<mask id="mask0_285_65" style="mask-type:luminance" maskUnits="userSpaceOnUse" x="0" y="0" width="1215" height="331">
<rect width="1215" height="331" rx="16" fill="white"/>
</mask>
<g mask="url(#mask0_285_65)">
<path opacity="0.15" fill-rule="evenodd" clip-rule="evenodd" d="M-222.75 348.989C126.301 348.989 409.263 110.188 409.263 -184.388C409.263 -478.965 126.301 -717.766 -222.75 -717.766C-571.801 -717.766 -854.763 -478.965 -854.763 -184.388C-854.763 110.188 -571.801 348.989 -222.75 348.989ZM-222.75 169.098C-454.077 169.098 -641.605 10.8366 -641.605 -184.389C-641.605 -379.614 -454.077 -537.875 -222.75 -537.875C8.57739 -537.875 196.105 -379.614 196.105 -184.389C196.105 10.8366 8.57739 169.098 -222.75 169.098Z" fill="url(#paint1_linear_285_65)"/>
<path opacity="0.15" fill-rule="evenodd" clip-rule="evenodd" d="M1349.29 1046.07C1698.34 1046.07 1981.3 807.267 1981.3 512.69C1981.3 218.114 1698.34 -20.6875 1349.29 -20.6875C1000.24 -20.6875 717.276 218.114 717.276 512.69C717.276 807.267 1000.24 1046.07 1349.29 1046.07ZM1349.29 866.177C1117.96 866.177 930.434 707.916 930.434 512.691C930.434 317.465 1117.96 159.204 1349.29 159.204C1580.62 159.204 1768.14 317.465 1768.14 512.691C1768.14 707.916 1580.62 866.177 1349.29 866.177Z" fill="url(#paint2_linear_285_65)"/>
</g>
</g>
<defs>
<linearGradient id="paint0_linear_285_65" x1="0" y1="165.5" x2="1215" y2="165.5" gradientUnits="userSpaceOnUse">
<stop stop-color="#E9442F"/>
<stop offset="1" stop-color="#F29531"/>
</linearGradient>
<linearGradient id="paint1_linear_285_65" x1="409.263" y1="-716.344" x2="-851.394" y2="-716.344" gradientUnits="userSpaceOnUse">
<stop stop-color="white" stop-opacity="0.01"/>
<stop offset="1" stop-color="white"/>
</linearGradient>
<linearGradient id="paint2_linear_285_65" x1="1981.3" y1="-19.2656" x2="720.646" y2="-19.2656" gradientUnits="userSpaceOnUse">
<stop stop-color="white"/>
<stop offset="1" stop-color="white" stop-opacity="0.01"/>
</linearGradient>
<clipPath id="clip0_285_65">
<rect width="1215" height="331" fill="white"/>
</clipPath>
</defs>
</svg>
