<svg xmlns="http://www.w3.org/2000/svg" width="95" height="28" viewBox="0 0 95 28" fill="none">
  <path d="M51.2959 17.8466C51.2959 20.7669 47.6409 20.5935 47.6409 20.5935H44.0057V15.2943H47.6607C51.4039 15.273 51.2959 17.8466 51.2959 17.8466ZM44.0057 7.22685H46.7739C49.6502 7.37895 49.5422 9.51902 49.5422 9.51902C49.5422 12.1793 46.3633 12.2234 46.3633 12.2234H44.0057V7.22685ZM50.6251 13.2835C50.6251 13.2835 53.112 12.2234 53.0907 9.38973C53.0907 9.38973 53.4801 4.76129 47.3367 4.19851H40.5454V23.5793H48.333C48.333 23.5793 54.8444 23.6006 54.8444 18.1067C54.8642 18.128 55.0163 14.3863 50.6251 13.2835ZM33.0392 0.412716H61.6555V27.3864H33.0392V0.412716Z" fill="#617087"/>
  <path d="M18.3032 17.8466C18.3032 20.7669 14.6482 20.5935 14.6482 20.5935H10.9932V15.2943H14.6482C18.4127 15.273 18.3032 17.8466 18.3032 17.8466ZM10.9932 7.22685H13.7615C16.6377 7.37895 16.5297 9.51902 16.5297 9.51902C16.5297 12.1793 13.3508 12.2234 13.3508 12.2234H10.9932V7.22685ZM17.6111 13.2835C17.6111 13.2835 20.098 12.2234 20.0767 9.38973C20.0767 9.38973 20.4661 4.76129 14.3227 4.19851H7.55269V23.5793H15.3403C15.3403 23.5793 21.8517 23.6006 21.8517 18.1067C21.8517 18.128 22.0023 14.3863 17.6111 13.2835ZM0.0267181 0.412716H28.6431V27.3864H0.0267181V0.412716Z" fill="#617087"/>
  <path d="M88.8091 5.60393V9.19504C88.8091 9.19504 85.3047 7.05346 81.455 7.01087C81.455 7.01087 74.2515 6.85876 73.9275 13.9102C73.9275 13.9102 73.6674 20.3988 81.3683 20.7669C81.3683 20.7669 84.6126 21.1563 88.9825 18.3652V22.0856C88.9825 22.0856 83.0992 25.59 76.2851 22.8857C76.2851 22.8857 70.5524 20.7882 70.3364 13.9315C70.3364 13.9315 70.0991 6.88006 77.7346 4.52249C77.7346 4.52249 79.7682 3.74373 83.4445 4.09052C83.4445 4.06923 85.6286 4.28521 88.8091 5.60393ZM66.0319 27.3864H94.6482V0.412716H66.0319V27.3864Z" fill="#617087"/>
</svg>