<svg xmlns="http://www.w3.org/2000/svg" width="148" height="38" viewBox="0 0 148 38" fill="none">
  <g clip-path="url(#clip0_253_981)">
    <path d="M52.8394 24.8359H50.6855C49.645 24.8359 48.8419 24.5601 48.276 24.0064C47.7102 23.4527 47.4262 22.6556 47.4262 21.6152V15.3523C47.4262 14.3119 47.7102 13.5148 48.276 12.9611C48.8419 12.4074 49.645 12.1316 50.6855 12.1316H52.8394C53.8676 12.1316 54.6667 12.4115 55.2387 12.9712C55.8126 13.531 56.0986 14.324 56.0986 15.3523V16.2812C56.0986 16.5712 55.9546 16.7152 55.6646 16.7152H54.0055C53.7297 16.7152 53.5918 16.5712 53.5918 16.2812V15.472C53.5918 15.0501 53.5026 14.7499 53.3241 14.5735C53.1456 14.397 52.8475 14.3078 52.4256 14.3078H51.083C50.6753 14.3078 50.3812 14.397 50.2048 14.5735C50.0263 14.752 49.9391 15.0501 49.9391 15.472V21.4976C49.9391 21.9194 50.0284 22.2196 50.2048 22.396C50.3812 22.5725 50.6753 22.6638 51.083 22.6638H52.4256C52.8475 22.6638 53.1456 22.5745 53.3241 22.396C53.5026 22.2176 53.5918 21.9194 53.5918 21.4976V20.6883C53.5918 20.3983 53.7297 20.2543 54.0055 20.2543H55.6646C55.9546 20.2543 56.0986 20.4003 56.0986 20.6883V21.6172C56.0986 22.6435 55.8126 23.4385 55.2387 23.9983C54.6667 24.5581 53.8656 24.8379 52.8394 24.8379V24.8359Z" fill="#7D8B9E"/>
    <path d="M63.3674 24.836H61.609C60.5686 24.836 59.7654 24.5601 59.1996 24.0065C58.6337 23.4528 58.3498 22.6557 58.3498 21.6153V17.9808C58.3498 16.9404 58.6337 16.1433 59.1996 15.5896C59.7654 15.036 60.5686 14.7601 61.609 14.7601H63.3674C64.3957 14.7601 65.1948 15.04 65.7667 15.5998C66.3387 16.1596 66.6267 16.9526 66.6267 17.9808V21.6153C66.6267 22.6415 66.3407 23.4365 65.7667 23.9963C65.1928 24.5561 64.3937 24.836 63.3674 24.836ZM61.9842 22.6821H62.9922C63.4141 22.6821 63.7122 22.5969 63.8907 22.4245C64.0692 22.2541 64.1584 21.958 64.1584 21.5362V18.0599C64.1584 17.6381 64.0692 17.342 63.8907 17.1716C63.7122 17.0012 63.4141 16.914 62.9922 16.914H61.9842C61.5624 16.914 61.2663 16.9992 61.0959 17.1716C60.9255 17.344 60.8383 17.6401 60.8383 18.0599V21.5362C60.8383 21.958 60.9235 22.2541 61.0959 22.4245C61.2663 22.5949 61.5624 22.6821 61.9842 22.6821Z" fill="#7D8B9E"/>
    <path d="M69.1963 13.0605V11.3426C69.1963 11.079 69.3282 10.9471 69.5918 10.9471H71.3097C71.5733 10.9471 71.7051 11.0729 71.7051 11.3224V13.0605C71.7051 13.3241 71.5733 13.456 71.3097 13.456H69.5918C69.3282 13.456 69.1963 13.3241 69.1963 13.0605ZM69.1963 24.4201V15.1738C69.1963 14.898 69.3282 14.7601 69.5918 14.7601H71.2914C71.5672 14.7601 71.7051 14.898 71.7051 15.1738V24.4201C71.7051 24.5905 71.6747 24.7041 71.6159 24.7568C71.5571 24.8095 71.4537 24.8359 71.3097 24.8359H69.6101C69.3342 24.8359 69.1943 24.698 69.1943 24.4201H69.1963Z" fill="#7D8B9E"/>
    <path d="M76.5645 24.8358H74.8852C74.6094 24.8358 74.4715 24.6979 74.4715 24.42V15.1737C74.4715 14.8979 74.6094 14.76 74.8852 14.76H76.5645C76.8404 14.76 76.9783 14.8979 76.9783 15.1737V15.8247H77.0574C77.3474 15.1129 77.9924 14.7579 78.9943 14.7579H79.627C81.6937 14.7579 82.7281 15.8308 82.7281 17.9786V24.418C82.7281 24.6938 82.5821 24.8338 82.2941 24.8338H80.635C80.3592 24.8338 80.2193 24.6959 80.2193 24.418V18.0963C80.2193 17.6744 80.13 17.3742 79.9536 17.1978C79.7751 17.0193 79.477 16.9321 79.0551 16.9321H78.3432C77.4346 16.9321 76.9803 17.4331 76.9803 18.4329V24.418C76.9803 24.6938 76.8424 24.8338 76.5666 24.8338L76.5645 24.8358Z" fill="#7D8B9E"/>
    <path d="M97.2091 24.8358H90.7494C90.4736 24.8358 90.3336 24.6979 90.3336 24.4201V12.5473C90.3336 12.2715 90.4716 12.1335 90.7494 12.1335H97.2091C97.4727 12.1335 97.6046 12.2715 97.6046 12.5473V13.8899C97.6046 14.1657 97.4727 14.3057 97.2091 14.3057H93.0798C92.9216 14.3057 92.8425 14.3787 92.8425 14.5227V17.0903C92.8425 17.2343 92.9216 17.3073 93.0798 17.3073H96.4587C96.7345 17.3073 96.8744 17.4453 96.8744 17.7231V19.0658C96.8744 19.3416 96.7365 19.4815 96.4587 19.4815H93.0798C92.9216 19.4815 92.8425 19.5545 92.8425 19.6985V22.4446C92.8425 22.5886 92.9216 22.6617 93.0798 22.6617H97.2091C97.4727 22.6617 97.6046 22.7996 97.6046 23.0774V24.4201C97.6046 24.6959 97.4727 24.8358 97.2091 24.8358Z" fill="#7D8B9E"/>
    <path d="M103.788 24.8359H102.979C101.965 24.8359 101.198 24.5601 100.677 24.0064C100.156 23.4527 99.8964 22.6556 99.8964 21.6152V17.9808C99.8964 16.9403 100.156 16.1433 100.677 15.5896C101.196 15.0359 101.965 14.7601 102.979 14.7601H103.788C104.196 14.7601 104.585 14.8493 104.955 15.0257C105.324 15.2042 105.579 15.4699 105.725 15.8269H105.804V11.3629C105.804 11.0871 105.942 10.9471 106.22 10.9471H107.899C108.175 10.9471 108.315 11.0851 108.315 11.3629V24.4222C108.315 24.698 108.177 24.8379 107.899 24.8379H106.22C105.944 24.8379 105.804 24.7 105.804 24.4222V23.7711H105.725C105.581 24.126 105.324 24.3938 104.955 24.5702C104.585 24.7487 104.198 24.8379 103.788 24.8379V24.8359ZM105.804 21.1609V18.4351C105.804 17.4352 105.35 16.9342 104.441 16.9342H103.553C103.131 16.9342 102.835 17.0235 102.665 17.1999C102.494 17.3784 102.407 17.6765 102.407 18.0984V21.4955C102.407 21.9174 102.492 22.2176 102.665 22.394C102.835 22.5725 103.131 22.6617 103.553 22.6617H104.441C105.35 22.6617 105.804 22.1608 105.804 21.1609Z" fill="#7D8B9E"/>
    <path d="M111.078 13.0605V11.3426C111.078 11.079 111.209 10.9471 111.473 10.9471H113.191C113.455 10.9471 113.586 11.0729 113.586 11.3224V13.0605C113.586 13.3241 113.455 13.456 113.191 13.456H111.473C111.209 13.456 111.078 13.3241 111.078 13.0605ZM111.078 24.4201V15.1738C111.078 14.898 111.209 14.7601 111.473 14.7601H113.173C113.448 14.7601 113.586 14.898 113.586 15.1738V24.4201C113.586 24.5905 113.556 24.7041 113.497 24.7568C113.438 24.8095 113.335 24.8359 113.191 24.8359H111.491C111.216 24.8359 111.076 24.698 111.076 24.4201H111.078Z" fill="#7D8B9E"/>
    <path d="M116.57 16.9341H115.779C115.621 16.9341 115.513 16.9078 115.452 16.855C115.393 16.8023 115.363 16.6968 115.363 16.5386V15.1757C115.363 14.8999 115.501 14.762 115.779 14.762H116.57C116.714 14.762 116.787 14.689 116.787 14.545V12.6689C116.787 12.3931 116.931 12.2532 117.221 12.2532H118.88C119.156 12.2532 119.296 12.3911 119.296 12.6689V14.545C119.296 14.691 119.375 14.762 119.533 14.762H121.074C121.35 14.762 121.488 14.8999 121.488 15.1757V16.5386C121.488 16.6826 121.458 16.7861 121.399 16.8449C121.34 16.9037 121.23 16.9341 121.072 16.9341H119.531C119.373 16.9341 119.294 17.0072 119.294 17.1512V21.5178C119.294 21.9254 119.385 22.2195 119.569 22.3959C119.754 22.5744 120.056 22.6637 120.478 22.6637H121.269C121.545 22.6637 121.685 22.8016 121.685 23.0794V24.4423C121.685 24.5884 121.654 24.6898 121.595 24.7486C121.537 24.8074 121.427 24.8378 121.269 24.8378H120.064C119.024 24.8378 118.217 24.562 117.645 24.0083C117.073 23.4546 116.785 22.6657 116.785 21.6374V17.1532C116.785 17.0092 116.712 16.9362 116.568 16.9362L116.57 16.9341Z" fill="#7D8B9E"/>
    <path d="M123.92 13.0605V11.3426C123.92 11.079 124.052 10.9471 124.315 10.9471H126.033C126.297 10.9471 126.429 11.0729 126.429 11.3224V13.0605C126.429 13.3241 126.297 13.456 126.033 13.456H124.315C124.052 13.456 123.92 13.3241 123.92 13.0605ZM123.92 24.4201V15.1738C123.92 14.898 124.052 14.7601 124.315 14.7601H126.015C126.291 14.7601 126.429 14.898 126.429 15.1738V24.4201C126.429 24.5905 126.398 24.7041 126.339 24.7568C126.281 24.8095 126.177 24.8359 126.033 24.8359H124.334C124.058 24.8359 123.918 24.698 123.918 24.4201H123.92Z" fill="#7D8B9E"/>
    <path d="M134.014 24.836H132.255C131.215 24.836 130.412 24.5601 129.846 24.0065C129.28 23.4528 128.996 22.6557 128.996 21.6153V17.9808C128.996 16.9404 129.28 16.1433 129.846 15.5896C130.412 15.036 131.215 14.7601 132.255 14.7601H134.014C135.042 14.7601 135.841 15.04 136.413 15.5998C136.987 16.1596 137.273 16.9526 137.273 17.9808V21.6153C137.273 22.6415 136.987 23.4365 136.413 23.9963C135.841 24.5561 135.04 24.836 134.014 24.836ZM132.631 22.6821H133.639C134.06 22.6821 134.361 22.5969 134.537 22.4245C134.716 22.2541 134.803 21.958 134.803 21.5362V18.0599C134.803 17.6381 134.714 17.342 134.537 17.1716C134.359 17.0012 134.06 16.914 133.639 16.914H132.631C132.209 16.914 131.913 16.9992 131.742 17.1716C131.572 17.342 131.485 17.6401 131.485 18.0599V21.5362C131.485 21.958 131.57 22.2541 131.742 22.4245C131.913 22.5949 132.209 22.6821 132.631 22.6821Z" fill="#7D8B9E"/>
    <path d="M141.836 24.8358H140.157C139.881 24.8358 139.741 24.6979 139.741 24.42V15.1737C139.741 14.8979 139.879 14.76 140.157 14.76H141.836C142.112 14.76 142.252 14.8979 142.252 15.1737V15.8247H142.331C142.621 15.1129 143.266 14.7579 144.268 14.7579H144.901C146.968 14.7579 148.002 15.8308 148.002 17.9786V24.418C148.002 24.6938 147.858 24.8338 147.568 24.8338H145.909C145.633 24.8338 145.493 24.6959 145.493 24.418V18.0963C145.493 17.6744 145.404 17.3742 145.225 17.1978C145.047 17.0213 144.749 16.9321 144.327 16.9321H143.615C142.707 16.9321 142.252 17.4331 142.252 18.4329V24.418C142.252 24.6938 142.114 24.8338 141.836 24.8338V24.8358Z" fill="#7D8B9E"/>
    <path d="M36.6912 25.8622V35.5588C36.6912 36.5647 35.8698 37.376 34.8638 37.3618L25.6317 37.2381C25.6317 37.2381 33.4117 33.3481 36.6932 25.8622H36.6912Z" fill="#7D8B9E"/>
    <path d="M25.2666 0.690918H34.9632C35.9691 0.690918 36.7804 1.51232 36.7662 2.51828L36.6425 11.7504C36.6425 11.7504 32.7525 3.97043 25.2666 0.690918Z" fill="#7D8B9E"/>
    <path d="M29.2783 13.8412V23.8501C29.2783 23.8501 25.8122 19.4531 21.2772 18.9785C27.098 17.8955 29.2783 13.8412 29.2783 13.8412Z" fill="#7D8B9E"/>
    <path d="M17.4603 0.386597V8.846C17.4603 8.846 10.8668 9.88847 9.3477 16.5185C8.91368 18.4128 8.99278 20.3943 9.59108 22.2439C11.4894 28.1195 17.2007 28.9389 17.2007 28.9389V37.4125C17.2007 37.4125 1.06069 35.7108 0.00808494 19.3031C-0.158223 15.3077 2.34045 1.4534 17.4603 0.386597Z" fill="#7D8B9E"/>
  </g>
  <defs>
    <clipPath id="clip0_253_981">
      <rect width="148" height="37.0259" fill="white" transform="translate(0 0.386597)"/>
    </clipPath>
  </defs>
</svg>