<svg xmlns="http://www.w3.org/2000/svg" width="125" height="28" viewBox="0 0 125 28" fill="none">
  <path d="M116.311 21.9042C116.311 20.156 117.73 18.7377 119.477 18.7377C121.226 18.7377 122.643 20.156 122.643 21.9042C122.643 23.6523 121.226 25.0697 119.477 25.0697C117.73 25.0697 116.311 23.6523 116.311 21.9042Z" fill="#617087"/>
  <path d="M15.3272 13.5154C15.3272 11.5097 14.9397 10.0218 14.1646 9.05242C13.3885 8.08396 12.2129 7.60019 10.6324 7.60019H8.95118V19.8649H10.2375C11.993 19.8649 13.2794 19.3444 14.0985 18.2999C14.9167 17.2573 15.3272 15.6621 15.3272 13.5154ZM21.323 13.3065C21.323 16.9604 20.3408 19.776 18.3764 21.7523C16.412 23.7295 13.6505 24.7181 10.0909 24.7181H3.17429V2.823H10.5737C14.0059 2.823 16.6556 3.72181 18.5229 5.51854C20.3893 7.31618 21.323 9.91094 21.323 13.3065Z" fill="#617087"/>
  <path d="M40.4826 24.722H45.9865V2.73523H40.4826V24.722Z" fill="#617087"/>
  <path d="M53.7151 16.5149C53.7151 17.9168 53.8983 18.986 54.2639 19.7208C54.6304 20.4565 55.2442 20.824 56.1073 20.824C56.9612 20.824 57.565 20.4565 57.9168 19.7208C58.2687 18.986 58.4437 17.9168 58.4437 16.5149C58.4437 15.1204 58.2659 14.0686 57.9095 13.3585C57.5522 12.6466 56.943 12.2902 56.079 12.2902C55.2342 12.2902 54.6304 12.6448 54.2639 13.3503C53.8983 14.0567 53.7151 15.1113 53.7151 16.5149ZM64.0455 16.5149C64.0455 19.1858 63.3455 21.2693 61.9418 22.7627C60.5391 24.2571 58.5756 25.0047 56.0514 25.0047C53.6308 25.0047 51.7038 24.2406 50.2736 22.7123C48.8416 21.184 48.1261 19.1189 48.1261 16.5149C48.1261 13.8524 48.827 11.7835 50.2307 10.3084C51.6343 8.83326 53.6023 8.0957 56.1366 8.0957C57.7025 8.0957 59.0878 8.43747 60.2881 9.12006C61.4892 9.80265 62.4165 10.7803 63.0679 12.0538C63.7203 13.3256 64.0455 14.8135 64.0455 16.5149Z" fill="#617087"/>
  <path d="M66.2314 24.7172H71.7362V16.3025V8.38538H66.2314V24.7172Z" fill="#617087"/>
  <path d="M66.2314 6.4112H71.7362V2.73071H66.2314V6.4112Z" fill="#617087"/>
  <path d="M82.8884 20.5534C83.6315 20.5534 84.5165 20.3647 85.5491 19.99V24.0992C84.8069 24.4254 84.1015 24.6591 83.4308 24.7974C82.7601 24.9376 81.973 25.0072 81.0724 25.0072C79.2244 25.0072 77.8922 24.5427 77.0739 23.6155C76.2595 22.6883 75.8508 21.2644 75.8508 19.3431V12.6107H73.9232V8.38867H75.8508V4.21799L81.3978 3.25317V8.38867H84.9097V12.6107H81.3978V18.9675C81.3978 20.0248 81.8952 20.5534 82.8884 20.5534Z" fill="#617087"/>
  <path d="M95.6298 20.5534C96.3729 20.5534 97.2581 20.3647 98.2906 19.99V24.0992C97.5494 24.4254 96.8429 24.6591 96.1722 24.7974C95.5006 24.9376 94.7163 25.0072 93.8138 25.0072C91.9658 25.0072 90.6337 24.5427 89.8173 23.6155C89.001 22.6883 88.5924 21.2644 88.5924 19.3431V12.6107H86.6636V8.38867H88.5924V4.15477L94.1382 3.25317V8.38867H97.6519V12.6107H94.1382V18.9675C94.1382 20.0248 94.6357 20.5534 95.6298 20.5534Z" fill="#617087"/>
  <path d="M105.24 14.5249C105.315 13.6306 105.571 12.9755 106.007 12.5568C106.445 12.139 106.985 11.9301 107.632 11.9301C108.338 11.9301 108.898 12.1647 109.314 12.6374C109.733 13.1075 109.951 13.7369 109.969 14.5249H105.24ZM113.002 10.0207C111.694 8.738 109.838 8.0957 107.436 8.0957C104.912 8.0957 102.97 8.83326 101.608 10.3084C100.247 11.7835 99.5666 13.9 99.5666 16.6579C99.5666 19.3287 100.302 21.3883 101.77 22.8342C103.239 24.28 105.301 25.0038 107.957 25.0038C109.233 25.0038 110.331 24.9168 111.25 24.7436C112.165 24.5723 113.05 24.2626 113.908 23.8154L113.063 20.135C112.439 20.3897 111.845 20.5857 111.284 20.7149C110.474 20.9028 109.586 20.9971 108.618 20.9971C107.557 20.9971 106.72 20.7378 106.106 20.2192C105.492 19.6997 105.165 18.9833 105.127 18.0707H114.966V15.563C114.966 13.1505 114.311 11.3025 113.002 10.0207Z" fill="#617087"/>
  <path d="M28.6256 14.5249C28.7008 13.6306 28.9564 12.9755 29.3925 12.5568C29.8295 12.139 30.3711 11.9301 31.0189 11.9301C31.7226 11.9301 32.2833 12.1647 32.7002 12.6374C33.1189 13.1075 33.336 13.7369 33.3553 14.5249H28.6256ZM36.3889 10.0207C35.0796 8.738 33.2242 8.0957 30.8219 8.0957C28.2967 8.0957 26.3552 8.83326 24.9946 10.3084C23.634 11.7835 22.9524 13.9 22.9524 16.6579C22.9524 19.3287 23.6872 21.3883 25.1569 22.8342C26.6247 24.28 28.687 25.0038 31.3432 25.0038C32.6186 25.0038 33.7162 24.9168 34.6361 24.7436C35.5505 24.5723 36.4357 24.2626 37.2951 23.8154L36.4485 20.135C35.8245 20.3897 35.2308 20.5857 34.671 20.7149C33.8592 20.9028 32.9713 20.9971 32.0037 20.9971C30.9437 20.9971 30.1055 20.7378 29.4916 20.2192C28.8768 19.6997 28.5506 18.9833 28.5131 18.0707H38.3515V15.563C38.3515 13.1505 37.6973 11.3025 36.3889 10.0207Z" fill="#617087"/>
</svg>