<svg xmlns="http://www.w3.org/2000/svg" width="224" height="35" viewBox="0 0 224 35" fill="none">
<g clip-path="url(#clip0_192_739)">
<path d="M64.8064 8.52897C62.8774 12.4118 61.1125 15.9711 59.2767 19.676C63.6458 19.7731 67.703 17.2751 69.1883 13.8226C70.6479 10.4251 69.1722 7.64562 65.5748 7.0276C55.8014 5.33209 48.5357 11.4508 47.986 21.8666C47.8959 23.4521 47.8381 25.0376 47.6387 26.6101C46.8286 33.0815 44.7935 34.214 38.9971 31.4637C35.7082 33.5086 34.4029 33.5086 31.1366 31.496C27.1758 36.1263 17.0971 36.1005 13.8275 30.9363C10.5579 25.7721 7.26585 21.5721 0.122314 23.9309V12.3212C2.25059 12.3212 4.3017 12.5412 6.26602 12.2403C7.57127 12.0429 8.79615 11.1467 10.0017 10.4607C10.3618 10.2568 10.6061 9.74559 10.7862 9.32172C13.8371 2.18374 19.6176 0.565886 26.5457 1.66603C28.1885 1.92812 29.6995 3.10592 31.7121 4.08634C34.6055 2.56555 36.4605 2.63998 39.2253 4.81437C42.1187 2.59468 44.5106 2.56555 47.0858 4.4908C54.5508 2.42318 61.6429 -0.660448 69.3523 1.90223C74.4511 3.59451 76.3158 9.10169 73.7985 14.6736C71.3937 20.0222 66.7257 21.9733 61.36 22.8988C60.1383 23.1123 58.1258 23.4488 57.9458 24.1283C57.396 26.1798 57.4892 28.4253 57.515 30.5997C57.515 31.1207 58.2255 31.6384 58.6145 32.1626C55.4446 33.8484 52.355 32.5379 52.0014 29.1696C51.2652 22.1157 53.6796 15.6216 56.7048 9.56116C58.1097 6.72668 61.7233 7.79446 64.8225 8.52897" fill="#707E93"/>
<path d="M138.929 24.1088C132.863 30.8359 130.091 29.3507 128.024 25.0407C126.992 25.9726 126.044 27.0177 124.915 27.8105C122.147 29.7519 118.958 28.6259 118.772 25.2705C118.585 21.915 119.44 18.4949 119.681 15.0909C119.759 13.9487 121.459 12.4538 119.212 11.5963C119.482 10.8942 119.643 10.1144 120.048 9.49637C120.755 8.41888 121.89 7.55494 122.353 6.3998C124.189 1.81803 126.317 1.03822 130.969 3.56531C130.23 5.23818 129.49 6.92722 128.789 8.51595C129.336 9.22457 129.805 9.83936 130.275 10.4574C129.667 10.9233 129.075 11.4054 128.452 11.8455C128.088 12.1044 127.429 12.2047 127.327 12.5218C125.912 16.712 124.578 20.9346 123.674 25.3449C124.871 24.9324 125.948 24.2303 126.811 23.3005C127.674 22.3707 128.297 21.2415 128.625 20.0124C129.288 17.7798 129.876 15.5213 130.619 13.3177C132.078 8.96571 134.827 8.10178 139.128 10.7292C136.965 15.3983 134.505 20.0318 134.203 25.3967C136.862 23.8467 138.453 21.7144 138.826 18.6275C139.299 14.7447 140.951 11.4346 144.542 9.54167C148.629 7.38992 152.753 9.86524 152.779 14.3726C152.795 17.2847 151.933 17.9966 148.85 17.7474L150.259 13.486C146.507 14.7479 143.726 21.7532 145.619 24.4874C146.131 25.2187 148.394 25.7396 148.834 25.3028C150.554 23.6494 152.387 21.7629 153.21 19.5918C154.894 15.1686 155.782 10.4477 157.306 5.9565C158.801 1.55917 161.601 0.824668 165.619 3.33234L159.19 20.721L159.633 20.8861C161.681 18.016 163.588 15.0294 165.844 12.3373C166.909 11.0625 168.529 9.89113 170.101 9.49961C172.994 8.77804 174.689 11.0722 173.637 13.9066C172.586 16.7411 171.548 19.4559 170.57 22.2774C170.22 23.2934 170.159 24.4098 169.831 26.2088C172.84 24.2189 174.232 22.0703 174.939 19.2326C175.515 16.9191 176.203 14.4923 177.476 12.5347C178.46 11.0269 180.279 9.75199 181.996 9.1275C184.128 8.3574 186.449 8.72951 188.059 10.7615C189.554 12.6447 189.516 14.7382 188.641 16.8382C187.677 19.1647 185.86 20.2389 183.346 20.1127C182.793 20.0868 182.24 20.1127 181.543 20.1127C181.118 22.0865 180.45 24.2318 182.53 25.3902C184.668 26.5842 186.59 25.2316 187.78 23.4746C188.837 21.8956 189.48 20.0124 190.123 18.2037C190.628 16.8123 190.811 15.2915 191.252 13.8775C192.663 9.34753 195.753 8.3121 199.932 11.0398L197.547 15.3595L197.743 15.5116C199.186 13.9228 200.44 12.0688 202.141 10.836C203.34 9.96878 205.25 9.44136 206.642 9.74552C207.343 9.90083 207.928 12.2208 207.947 13.5669C207.995 17.6245 205.883 20.3619 203.163 20.1613C202.745 20.1321 202.35 19.8377 201.945 19.6889L203.067 15.7834L202.424 15.3271C201.591 16.0649 200.495 16.6538 199.977 17.5695C198.402 20.4039 197.084 23.3937 195.602 26.2703C195.113 27.241 194.441 28.1114 193.853 29.0336C192.756 28.3088 191.57 27.6908 190.612 26.8171C190.127 26.3835 190.05 25.484 189.988 25.3287C187.343 26.3932 184.783 27.8655 182.041 28.4091C178.826 29.0562 176.351 27.3251 175.055 24.0927C172.483 26.2703 170.795 30.3829 166.786 28.3962C162.928 26.4774 164.822 22.491 164.51 18.6017C162.816 21.4879 161.43 23.9244 159.971 26.3124C159.247 27.4934 158.971 29.6581 157.007 28.9009C155.627 28.3767 154.573 26.9595 153.425 25.8626C153.197 25.649 153.203 25.1831 153.297 25.497C150.702 26.5065 148.207 27.9043 145.545 28.4091C142.411 28.9948 140.08 27.2604 138.923 24.1153M181.704 17.7474C186.073 17.343 186.88 16.1781 185.24 13.0524L181.704 17.7474Z" fill="#707E93"/>
<path d="M84.3016 24.7592C83.5333 25.4937 82.4563 26.8042 81.1253 27.749C78.1 29.9008 74.9784 28.5029 74.8337 24.7722C74.7475 21.8904 75.0175 19.009 75.6374 16.1943C76.3383 12.9295 77.4603 9.72287 78.5662 6.57775C80.2444 1.78567 82.6749 0.983212 87.1983 3.5103C84.3466 10.6289 81.0899 17.5889 80.2605 25.3934C82.8324 23.9762 84.1409 21.9021 84.8578 19.0417C85.5329 16.3399 86.626 13.4925 88.3395 11.3634C91.0401 8.00794 94.5733 8.15031 97.7303 11.0107C100.302 8.91717 102.312 8.81039 105.427 10.5415L99.6946 25.7688C103.662 24.2577 106.124 19.9024 105.594 16.9029C105.096 14.0975 106.314 11.9846 108.639 10.5383C111.644 8.66479 115.499 8.5386 117.277 10.1403C118.936 11.6384 118.611 14.4114 116.833 16.1684C115.38 15.3465 114.075 14.5182 112.683 13.8808C112.387 13.7449 111.532 14.1784 111.397 14.5279C111.262 14.8774 111.554 15.6313 111.895 15.9225C112.885 16.7573 114.069 17.3624 115.046 18.2101C118.309 21.0608 117.74 25.7526 113.933 27.7361C110.645 29.451 106.372 28.7262 103.88 26.0244C98.9745 29.6807 97.3059 29.6192 95.033 25.9047C93.1587 26.5971 91.2844 27.9108 89.5355 27.7555C87.7866 27.6002 86.2595 25.9435 84.308 24.7527M91.1269 25.5811C94.4222 23.7788 96.6758 17.11 95.3352 13.6672C92.3421 15.1589 90.3457 20.6596 91.1204 25.5876M106.922 19.6889C106.6 20.789 105.983 21.7338 106.173 22.4683C106.42 23.439 107.137 24.7074 107.951 24.9987C108.886 25.3222 110.146 24.7301 111.265 24.5359C110.789 23.5652 110.484 22.4392 109.796 21.6562C109.108 20.8731 108.047 20.4201 106.922 19.6889Z" fill="#707E93"/>
<path d="M223.559 16.6862C223.334 20.8279 221.9 24.5425 218.315 27.1311C213.882 30.3345 209.182 28.4577 208.349 23.0638C207.706 18.8218 208.738 14.9034 211.545 11.6029C213.731 9.01437 217.11 8.11808 219.82 9.33794C222.916 10.7131 223.482 13.5023 223.559 16.6862ZM214.734 26.2381C215.93 25.4356 217.103 25.0829 217.412 24.3581C218.556 21.6515 219.522 18.8726 220.305 16.0391C220.485 15.392 219.691 14.486 219.341 13.6997C218.592 14.1494 217.557 14.4148 217.142 15.0749C215.158 18.2232 214.155 21.6595 214.744 26.2381" fill="#707E93"/>
<path d="M137.489 8.50637C136.007 8.21515 133.975 8.70698 133.818 6.22196C133.679 4.12522 135.219 2.66267 137.531 2.72092C139.367 2.75651 141.27 3.04449 141.257 5.42274C141.257 7.68773 139.807 8.73287 137.489 8.50637Z" fill="#707E93"/>
</g>
<defs>
<clipPath id="clip0_192_739">
<rect width="223.449" height="33.9555" fill="white" transform="translate(0.122314 0.921753)"/>
</clipPath>
</defs>
</svg>