<svg xmlns="http://www.w3.org/2000/svg" width="186" height="34" viewBox="0 0 186 34" fill="none">
  <g clip-path="url(#clip0_22_1425)">
    <path d="M22.0598 21.7121C22.0598 21.7121 27.931 19.2126 27.931 11.7015C27.931 5.44683 23.7271 0.762121 16.73 0.462402H6.71243V30.6945H2.66453V9.05939L6.04157 9.04497V6.33157H0V33.3085H9.33456V9.0169H15.4465C15.4465 9.0169 18.5245 9.08822 18.5245 11.9443C18.5245 14.943 15.9168 15.1577 14.3918 15.0553L25.0098 30.6808H20.4212L15.6737 23.5688C16.7851 23.474 17.8837 23.2634 18.9515 22.9405L17.3395 20.5837C15.1909 21.2021 12.9311 21.3289 10.727 20.9548L19.0212 33.3229H30.0231L22.0598 21.7121ZM18.6396 16.714C18.6396 16.714 21.1905 15.6426 21.1905 11.7584C21.1905 7.85976 17.4993 6.55996 16.1318 6.46056H9.31714V3.04605H16.471C16.471 3.04605 25.1923 2.87456 25.2634 11.6575C25.3505 13.2948 24.9499 14.9212 24.1125 16.33C23.2751 17.7387 22.0388 18.8662 20.5606 19.5693L18.6396 16.714Z" fill="#617087"/>
    <path d="M37.7789 17.9562C41.3846 17.9562 43.1087 19.97 43.1087 22.4831C43.1388 23.5371 42.7853 24.5661 42.114 25.3781C41.4428 26.1901 40.4997 26.7297 39.4606 26.8961L43.3086 33.3367H40.9144L37.2663 27.0532H34.8433V33.3367H32.8337V17.9562H37.7789ZM37.7789 19.5982H34.8259V25.4249H37.7789C40.0452 25.4249 41.0424 24.1964 41.0424 22.4656C41.0424 20.7265 40.0732 19.5982 37.7789 19.5982Z" fill="#617087"/>
    <path d="M51.4309 33.3222C47.9963 33.3222 45.4598 30.8941 45.4598 27.0532C45.4598 23.2403 47.8964 20.8266 51.4309 20.8266C52.1992 20.7898 52.9667 20.9141 53.6843 21.1916C54.4019 21.469 55.0539 21.8935 55.5984 22.4378C56.143 22.9821 56.5681 23.6344 56.8468 24.3528C57.1254 25.0713 57.2514 25.8401 57.2166 26.61C57.215 27.0157 57.1912 27.421 57.1454 27.8241H47.5117C47.5127 28.3336 47.6157 28.8377 47.8146 29.3066C48.0136 29.7755 48.3043 30.1996 48.6698 30.5538C49.0353 30.908 49.468 31.1851 49.9422 31.3687C50.4165 31.5523 50.9227 31.6386 51.4309 31.6226C52.1625 31.6794 52.8922 31.4915 53.5059 31.0884C54.1195 30.6853 54.5825 30.0897 54.8223 29.3948H56.9743C56.3632 31.6089 54.4233 33.3222 51.4309 33.3222ZM47.5405 26.1958H55.1517C55.1805 23.8397 53.4102 22.54 51.3469 22.54C50.8571 22.5288 50.37 22.6146 49.9135 22.7924C49.4569 22.9703 49.0398 23.2367 48.6862 23.5764C48.3326 23.9161 48.0494 24.3224 47.8528 24.772C47.6562 25.2216 47.55 25.705 47.5405 26.1958Z" fill="#617087"/>
    <path d="M64.827 20.841C65.7214 20.8002 66.6101 21.0014 67.4001 21.4236C68.19 21.8458 68.8519 22.4733 69.3164 23.2403V21.0398H71.3403V33.1211H69.3164V30.8645C68.8502 31.6392 68.1851 32.2744 67.3906 32.7038C66.5961 33.1333 65.7011 33.3413 64.799 33.3062C61.5924 33.3062 59.0989 30.7643 59.0989 27.0228C59.1126 23.2691 61.5923 20.841 64.827 20.841ZM65.2261 22.5862C63.0302 22.5862 61.1502 24.2001 61.1502 27.0418C61.1502 29.8834 63.0166 31.5686 65.2261 31.5686C67.4355 31.5686 69.3149 29.9122 69.3149 27.0706C69.3156 24.2555 67.4348 22.5862 65.2261 22.5862Z" fill="#617087"/>
    <path d="M74.731 16.9994H76.7405V33.3223H74.731V16.9994Z" fill="#617087"/>
    <path d="M90.9763 17.9562C94.582 17.9562 96.3061 19.97 96.3061 22.4831C96.3362 23.5371 95.9827 24.5661 95.3114 25.3781C94.6402 26.1901 93.697 26.7297 92.658 26.8961L96.506 33.3367H94.1118L90.4637 27.0532H88.0407V33.3367H86.0311V17.9562H90.9763ZM90.9763 19.5982H88.0233V25.4249H90.9763C93.2425 25.4249 94.2398 24.1964 94.2398 22.4656C94.2254 20.7265 93.2706 19.5982 90.9763 19.5982Z" fill="#617087"/>
    <path d="M104.615 33.3222C101.18 33.3222 98.6436 30.8941 98.6436 27.0532C98.6436 23.2403 101.08 20.8266 104.615 20.8266C105.383 20.7898 106.15 20.9141 106.868 21.1916C107.586 21.469 108.238 21.8935 108.782 22.4378C109.327 22.9821 109.752 23.6344 110.031 24.3528C110.309 25.0713 110.435 25.8401 110.4 26.61C110.399 27.0157 110.375 27.421 110.329 27.8241H100.696C100.697 28.3336 100.8 28.8377 100.998 29.3066C101.197 29.7755 101.488 30.1996 101.854 30.5538C102.219 30.908 102.652 31.1851 103.126 31.3687C103.6 31.5523 104.107 31.6386 104.615 31.6226C105.346 31.6794 106.076 31.4915 106.69 31.0884C107.303 30.6853 107.766 30.0897 108.006 29.3948H110.158C109.547 31.6089 107.607 33.3222 104.615 33.3222ZM100.724 26.1958H108.335C108.364 23.8397 106.594 22.54 104.531 22.54C103.542 22.5196 102.586 22.8933 101.872 23.5789C101.159 24.2645 100.746 25.2052 100.724 26.1958Z" fill="#617087"/>
    <path d="M117.312 33.3223C114.49 33.3223 112.509 31.7797 112.381 29.5663H114.448C114.562 30.7371 115.588 31.6226 117.283 31.6226C118.865 31.6226 119.749 30.8228 119.749 29.8372C119.749 27.1526 112.623 28.7089 112.623 24.2108C112.623 22.3541 114.365 20.8403 117.041 20.8403C119.705 20.8403 121.458 22.2684 121.601 24.6388H119.592C119.506 23.4247 118.58 22.5392 116.97 22.5392C115.502 22.5392 114.619 23.2388 114.619 24.2086C114.619 27.079 121.616 25.5084 121.701 29.8349C121.715 31.8229 119.976 33.3223 117.312 33.3223Z" fill="#617087"/>
    <path d="M129.752 33.3222C126.318 33.3222 123.781 30.8941 123.781 27.0532C123.781 23.2403 126.218 20.8266 129.752 20.8266C130.521 20.7898 131.288 20.9141 132.006 21.1916C132.723 21.469 133.375 21.8935 133.92 22.4378C134.464 22.9821 134.89 23.6344 135.168 24.3528C135.447 25.0713 135.573 25.8401 135.538 26.61C135.537 27.0157 135.513 27.421 135.467 27.8241H125.833C125.834 28.3336 125.937 28.8377 126.136 29.3066C126.335 29.7755 126.626 30.1996 126.991 30.5538C127.357 30.908 127.79 31.1851 128.264 31.3687C128.738 31.5523 129.244 31.6386 129.752 31.6226C130.484 31.6794 131.214 31.4915 131.827 31.0884C132.441 30.6853 132.904 30.0897 133.144 29.3948H135.296C134.685 31.6089 132.745 33.3222 129.752 33.3222ZM125.848 26.1958H133.457C133.486 23.8397 131.716 22.54 129.652 22.54C128.665 22.5224 127.711 22.8971 126.998 23.5822C126.285 24.2672 125.872 25.2063 125.848 26.1958Z" fill="#617087"/>
    <path d="M143.149 20.841C144.043 20.8002 144.932 21.0014 145.722 21.4236C146.512 21.8458 147.173 22.4733 147.638 23.2403V21.0398H149.662V33.1211H147.638V30.8645C147.172 31.6392 146.507 32.2744 145.712 32.7038C144.918 33.1333 144.023 33.3413 143.121 33.3062C139.914 33.3062 137.42 30.7643 137.42 27.0228C137.434 23.2691 139.914 20.841 143.149 20.841ZM143.548 22.5862C141.352 22.5862 139.472 24.2001 139.472 27.0418C139.472 29.8834 141.338 31.5686 143.548 31.5686C145.743 31.5686 147.636 29.9122 147.636 27.0706C147.637 24.2555 145.756 22.5862 143.548 22.5862Z" fill="#617087"/>
    <path d="M155.062 33.3223H153.052V21.2402H155.062V23.1964C155.428 22.4919 155.99 21.9097 156.682 21.5215C157.373 21.1333 158.162 20.9559 158.952 21.0111V23.0818H158.422C156.513 23.0818 155.059 23.9385 155.059 26.7376L155.062 33.3223Z" fill="#617087"/>
    <path d="M166.391 20.8411C169.384 20.8411 171.336 22.3837 171.963 24.9256H169.811C169.606 24.1947 169.154 23.5576 168.533 23.1228C167.912 22.688 167.159 22.4823 166.404 22.5407C164.208 22.5407 162.57 24.1114 162.57 27.0676C162.57 30.0663 164.195 31.6378 166.404 31.6378C167.161 31.7061 167.918 31.5043 168.542 31.068C169.165 30.6317 169.615 29.9889 169.811 29.2529H171.963C171.351 31.6522 169.384 33.3374 166.391 33.3374C162.957 33.3374 160.52 30.9093 160.52 27.0684C160.52 23.2692 162.957 20.8411 166.391 20.8411Z" fill="#617087"/>
    <path d="M174.628 16.9994H176.638V22.9831C177.08 22.3416 177.679 21.8248 178.378 21.4822C179.077 21.1396 179.852 20.9829 180.628 21.027C183.307 21.027 185.446 22.7403 185.446 26.211V33.3367H183.465V26.4963C183.465 24.0257 182.125 22.7692 180.101 22.7692C178.049 22.7692 176.653 24.0545 176.653 26.6534V33.3367H174.628V16.9994Z" fill="#617087"/>
  </g>
  <defs>
    <clipPath id="clip0_22_1425">
      <rect width="185.444" height="32.8742" fill="white" transform="translate(0 0.462402)"/>
    </clipPath>
  </defs>
</svg>