<svg xmlns="http://www.w3.org/2000/svg" width="163" height="38" viewBox="0 0 163 38" fill="none">
  <path d="M30.8858 36.1425V33.9069C30.906 33.4961 31.0782 33.1075 31.3691 32.8167C31.6599 32.5258 32.0485 32.3536 32.4593 32.3334H33.3704C33.6088 32.3236 33.8461 32.3711 34.0624 32.4719C34.2786 32.5728 34.4675 32.7241 34.6131 32.9131L34.0334 33.4929H33.8676C33.7926 33.3627 33.6836 33.2555 33.5523 33.1825C33.421 33.1096 33.2723 33.0738 33.1222 33.0789H32.5425C32.4264 33.0783 32.3114 33.1021 32.2051 33.1488C32.0989 33.1956 32.0036 33.2641 31.9255 33.35C31.8474 33.4359 31.7883 33.5373 31.7519 33.6476C31.7156 33.7579 31.7028 33.8745 31.7145 33.9901V36.0566C31.7028 36.1721 31.7156 36.2888 31.7519 36.399C31.7883 36.5093 31.8474 36.6107 31.9255 36.6966C32.0036 36.7826 32.0989 36.8511 32.2051 36.8978C32.3114 36.9445 32.4264 36.9684 32.5425 36.9678H33.2047C33.3548 36.9729 33.5035 36.937 33.6348 36.8641C33.7661 36.7912 33.8751 36.6839 33.9502 36.5538H34.1159L34.6956 37.1335C34.5501 37.3224 34.3613 37.4737 34.1452 37.5745C33.9291 37.6754 33.6919 37.723 33.4537 37.7132H32.5425C32.3295 37.7221 32.117 37.6881 31.9174 37.6132C31.7179 37.5383 31.5355 37.4241 31.3809 37.2774C31.2264 37.1306 31.1029 36.9543 31.0179 36.7588C30.9328 36.5634 30.8879 36.3529 30.8858 36.1398V36.1425Z" fill="#617087"/>
  <path d="M35.1921 36.1424V33.9061C35.2123 33.4953 35.3845 33.1067 35.6753 32.8159C35.9662 32.525 36.3547 32.3528 36.7655 32.3326H37.6767C38.0875 32.3528 38.4761 32.525 38.7669 32.8159C39.0577 33.1067 39.23 33.4953 39.2501 33.9061V36.1424C39.23 36.5532 39.0577 36.9418 38.7669 37.2326C38.4761 37.5234 38.0875 37.6957 37.6767 37.7158H36.8487C36.4234 37.7164 36.0142 37.5533 35.7058 37.2604C35.3974 36.9675 35.2135 36.5672 35.1921 36.1424ZM37.5928 36.8879C37.7089 36.8885 37.8239 36.8646 37.9301 36.8179C38.0364 36.7712 38.1317 36.7027 38.2098 36.6167C38.2879 36.5308 38.347 36.4294 38.3834 36.3191C38.4197 36.2089 38.4325 36.0922 38.4208 35.9767V33.9061C38.4325 33.7906 38.4197 33.6739 38.3834 33.5636C38.347 33.4533 38.2879 33.352 38.2098 33.266C38.1317 33.1801 38.0364 33.1116 37.9301 33.0648C37.8239 33.0181 37.7089 32.9943 37.5928 32.9949H36.9313C36.8152 32.9943 36.7002 33.0181 36.5939 33.0648C36.4877 33.1116 36.3924 33.1801 36.3143 33.266C36.2362 33.352 36.1771 33.4533 36.1407 33.5636C36.1044 33.6739 36.0916 33.7906 36.1033 33.9061V35.9767C36.1023 36.2046 36.1868 36.4246 36.3401 36.5933C36.4934 36.762 36.7043 36.8671 36.9313 36.8879H37.5928Z" fill="#617087"/>
  <path d="M40.3271 32.2999H41.404L42.4809 34.2873C42.8124 34.9496 43.2264 35.6125 43.5578 36.358H43.6404V32.2999H44.5693V37.6006H43.491L42.3998 35.6132C42.0683 34.951 41.6543 34.288 41.3228 33.5426H41.2546V37.6006H40.3407L40.3271 32.2999Z" fill="#617087"/>
  <path d="M45.5466 37.0537L46.0438 36.5565H46.2259C46.3009 36.6866 46.4099 36.7939 46.5412 36.8668C46.6725 36.9397 46.8212 36.9756 46.9713 36.9704H47.6336C47.7224 36.9778 47.8117 36.9657 47.8954 36.935C47.9791 36.9043 48.0551 36.8558 48.1181 36.7927C48.1811 36.7297 48.2297 36.6537 48.2603 36.5701C48.291 36.4864 48.3031 36.397 48.2958 36.3082V35.9767C48.2958 35.6453 48.1301 35.5628 47.7161 35.397L46.7224 35.1488C45.8112 34.983 45.4804 34.569 45.4804 33.9893V33.5753C45.4804 32.8299 46.0601 32.3334 46.9713 32.3334H47.8825C48.1178 32.3422 48.349 32.398 48.5624 32.4976C48.7759 32.5971 48.9672 32.7384 49.1251 32.9131L48.6279 33.4103H48.4622C48.3872 33.2802 48.2782 33.1729 48.1469 33.1C48.0156 33.027 47.8669 32.9912 47.7168 32.9963H47.2175C46.7203 32.9963 46.4721 33.162 46.4721 33.576V33.8243C46.4721 34.1557 46.6378 34.3215 47.0518 34.404L48.0455 34.6523C48.8735 34.818 49.2875 35.1494 49.2875 35.8117V36.2257C49.2943 36.4087 49.2618 36.591 49.1924 36.7604C49.1229 36.9299 49.0179 37.0825 48.8846 37.208C48.7513 37.3335 48.5926 37.429 48.4193 37.4882C48.246 37.5473 48.062 37.5687 47.8798 37.5509H46.8035C46.5685 37.618 46.3179 37.6056 46.0906 37.5157C45.8633 37.4258 45.6721 37.2634 45.5466 37.0537Z" fill="#617087"/>
  <path d="M50.183 36.1424V32.2999H51.0941V35.944C51.0825 36.0595 51.0952 36.1762 51.1316 36.2864C51.1679 36.3967 51.2271 36.4981 51.3051 36.584C51.3832 36.6699 51.4785 36.7385 51.5848 36.7852C51.6911 36.8319 51.806 36.8557 51.9221 36.8552H52.5837C52.8106 36.8343 53.0216 36.7292 53.1748 36.5606C53.3281 36.3919 53.4126 36.1719 53.4117 35.944V32.2999H54.3228V36.1097C54.3027 36.5205 54.1304 36.9091 53.8396 37.1999C53.5488 37.4907 53.1602 37.663 52.7494 37.6831H51.8396C51.4229 37.6732 51.0242 37.511 50.7189 37.2271C50.4137 36.9432 50.223 36.5574 50.183 36.1424Z" fill="#617087"/>
  <path d="M55.6487 32.2999H56.5599V36.8552H59.0445V37.6006H55.6487V32.2999Z" fill="#617087"/>
  <path d="M60.3028 33.1279H58.7294V32.3824H62.7049V33.1279H61.1315V37.6831H60.2203V33.1279H60.3028Z" fill="#617087"/>
  <path d="M63.6161 32.2999H64.5273V37.6006H63.6161V32.2999Z" fill="#617087"/>
  <path d="M65.9186 32.2999H66.9955L68.0724 34.2873C68.4039 34.9496 68.8179 35.6125 69.1493 36.358H69.2318V32.2999H70.143V37.6006H69.0654L67.9885 35.6132C67.6571 34.951 67.2431 34.288 66.9116 33.5426H66.8291V37.6006H65.9186V32.2999Z" fill="#617087"/>
  <path d="M71.3019 36.1425V33.9069C71.322 33.4961 71.4943 33.1075 71.7851 32.8167C72.0759 32.5258 72.4645 32.3536 72.8753 32.3334H73.869C74.1074 32.3236 74.3447 32.3711 74.5609 32.4719C74.7772 32.5728 74.966 32.7241 75.1117 32.9131L74.5319 33.4929H74.3846C74.3096 33.3627 74.2006 33.2555 74.0693 33.1825C73.938 33.1096 73.7893 33.0738 73.6392 33.0789H72.9769C72.8608 33.0783 72.7459 33.1021 72.6396 33.1488C72.5333 33.1956 72.438 33.2641 72.36 33.35C72.2819 33.4359 72.2227 33.5373 72.1864 33.6476C72.15 33.7579 72.1373 33.8745 72.149 33.9901V36.1432C72.1373 36.2587 72.15 36.3754 72.1864 36.4857C72.2227 36.5959 72.2819 36.6973 72.36 36.7832C72.438 36.8692 72.5333 36.9377 72.6396 36.9844C72.7459 37.0311 72.8608 37.055 72.9769 37.0544H73.6344C73.8614 37.0336 74.0723 36.9285 74.2256 36.7598C74.3788 36.5911 74.4633 36.3711 74.4624 36.1432V35.3971H73.3889V34.7348H75.3763V36.2257C75.3561 36.6365 75.1839 37.0251 74.8931 37.3159C74.6022 37.6068 74.2136 37.779 73.8029 37.7992H72.9749C72.5422 37.7739 72.1335 37.5918 71.8255 37.2868C71.5175 36.9818 71.3314 36.575 71.3019 36.1425Z" fill="#617087"/>
  <path d="M78.4235 37.0537L78.9207 36.5565H79.0864C79.1615 36.6866 79.2705 36.7939 79.4018 36.8668C79.5331 36.9397 79.6818 36.9756 79.8319 36.9704H80.4941C80.583 36.9778 80.6723 36.9657 80.756 36.935C80.8397 36.9043 80.9156 36.8558 80.9787 36.7927C81.0417 36.7297 81.0902 36.6537 81.1209 36.5701C81.1516 36.4864 81.1637 36.397 81.1564 36.3082V35.9767C81.1564 35.6453 80.9906 35.5628 80.5767 35.397L79.5829 35.1488C78.6718 34.983 78.3403 34.569 78.3403 33.9893V33.5753C78.3403 32.8299 78.92 32.3334 79.8312 32.3334H80.7424C80.9777 32.3422 81.2089 32.398 81.4223 32.4976C81.6357 32.5971 81.8271 32.7384 81.985 32.9131L81.4878 33.4103H81.3221C81.2471 33.2802 81.1381 33.1729 81.0068 33.1C80.8755 33.027 80.7268 32.9912 80.5767 32.9963H80.0808C79.5836 32.9963 79.3354 33.162 79.3354 33.576V33.8243C79.3354 34.1557 79.5011 34.3215 79.9151 34.404L80.9088 34.6523C81.7368 34.818 82.1514 35.1494 82.1514 35.8117V36.2257C82.1582 36.4087 82.1256 36.5911 82.056 36.7606C81.9864 36.93 81.8813 37.0826 81.7479 37.2081C81.6144 37.3336 81.4556 37.429 81.2822 37.488C81.1087 37.547 80.9247 37.5682 80.7424 37.5502H79.6668C79.4345 37.6295 79.1814 37.623 78.9534 37.5318C78.7254 37.4405 78.5377 37.2707 78.4242 37.053L78.4235 37.0537Z" fill="#617087"/>
  <path d="M83.1452 32.2999H86.8056V33.0454H84.0727V34.5363H86.4748V35.2817H84.0727V36.8552H86.8056V37.6006H83.1588V32.2999H83.1452Z" fill="#617087"/>
  <path d="M87.7004 32.2986H89.8535C90.0508 32.2804 90.2497 32.303 90.4379 32.3651C90.626 32.4272 90.7993 32.5275 90.947 32.6596C91.0946 32.7917 91.2135 32.9528 91.2961 33.1329C91.3786 33.313 91.4232 33.5082 91.427 33.7063V34.2035C91.4496 34.5072 91.3614 34.8088 91.1787 35.0525C90.996 35.2961 90.7311 35.4653 90.4332 35.5287L91.5102 37.4335V37.6818H90.6822L89.5227 35.6944H88.6116V37.6818H87.7004V32.2986ZM89.771 34.8657C89.8721 34.8795 89.9751 34.8697 90.0718 34.8371C90.1685 34.8045 90.2564 34.75 90.3285 34.6778C90.4007 34.6056 90.4552 34.5178 90.4878 34.4211C90.5204 34.3243 90.5302 34.2214 90.5165 34.1203V33.872C90.5302 33.7709 90.5204 33.668 90.4878 33.5712C90.4552 33.4745 90.4007 33.3867 90.3285 33.3145C90.2564 33.2423 90.1685 33.1878 90.0718 33.1552C89.9751 33.1226 89.8721 33.1128 89.771 33.1266H88.6116V34.8657H89.771Z" fill="#617087"/>
  <path d="M92.0067 32.4984V32.2999H92.9178L93.829 35.1985C93.9948 35.6957 94.1605 36.1922 94.3262 36.772C94.4919 36.1922 94.6577 35.695 94.8234 35.1985L95.7332 32.2999H96.6444V32.4657L94.9878 37.6006H93.7458L92.0067 32.4984Z" fill="#617087"/>
  <path d="M97.4731 32.2999H98.4006V37.6006H97.4867L97.4731 32.2999Z" fill="#617087"/>
  <path d="M99.4605 36.1425V33.9069C99.4807 33.4961 99.6529 33.1075 99.9438 32.8167C100.235 32.5258 100.623 32.3536 101.034 32.3334H101.945C102.184 32.3236 102.421 32.3711 102.637 32.4719C102.853 32.5728 103.042 32.7241 103.188 32.9131L102.608 33.4929H102.442C102.367 33.3627 102.258 33.2555 102.127 33.1825C101.996 33.1096 101.847 33.0738 101.697 33.0789H101.117C101.001 33.0783 100.886 33.1021 100.78 33.1488C100.674 33.1956 100.578 33.2641 100.5 33.35C100.422 33.4359 100.363 33.5373 100.327 33.6476C100.29 33.7579 100.278 33.8745 100.289 33.9901V36.0566C100.278 36.1721 100.29 36.2888 100.327 36.399C100.363 36.5093 100.422 36.6107 100.5 36.6966C100.578 36.7826 100.674 36.8511 100.78 36.8978C100.886 36.9445 101.001 36.9684 101.117 36.9678H101.779C101.93 36.9729 102.078 36.937 102.21 36.8641C102.341 36.7912 102.45 36.6839 102.525 36.5538H102.691L103.27 37.1335C103.125 37.3224 102.936 37.4737 102.72 37.5745C102.504 37.6754 102.267 37.723 102.028 37.7132H101.117C100.692 37.7138 100.283 37.5511 99.9751 37.2588C99.6668 36.9664 99.4826 36.5668 99.4605 36.1425Z" fill="#617087"/>
  <path d="M104.264 32.2999H107.908V33.0454H105.175V34.5363H107.577V35.2817H105.175V36.8552H107.908V37.6006H104.264V32.2999Z" fill="#617087"/>
  <path d="M108.653 37.0537L109.15 36.5565H109.316C109.391 36.6866 109.5 36.7939 109.631 36.8668C109.762 36.9397 109.911 36.9756 110.061 36.9704H110.723C110.812 36.9778 110.902 36.9657 110.985 36.935C111.069 36.9043 111.145 36.8558 111.208 36.7927C111.271 36.7297 111.32 36.6537 111.35 36.5701C111.381 36.4864 111.393 36.397 111.386 36.3082V35.9767C111.386 35.6453 111.22 35.5628 110.806 35.397L109.812 35.1488C108.901 34.983 108.57 34.569 108.57 33.9893V33.5753C108.57 32.8299 109.15 32.3334 110.061 32.3334H110.972C111.207 32.3422 111.438 32.398 111.652 32.4976C111.865 32.5971 112.056 32.7384 112.214 32.9131L111.717 33.4103H111.551C111.476 33.2802 111.367 33.1729 111.236 33.1C111.105 33.027 110.956 32.9912 110.806 32.9963H110.309C109.812 32.9963 109.563 33.162 109.563 33.576V33.8243C109.563 34.1557 109.729 34.3215 110.143 34.404L111.137 34.6523C111.965 34.818 112.379 35.1494 112.379 35.8117V36.2257C112.385 36.4086 112.353 36.5908 112.283 36.76C112.214 36.9293 112.109 37.0818 111.976 37.2072C111.843 37.3327 111.684 37.4282 111.511 37.4873C111.338 37.5465 111.154 37.5679 110.972 37.5502H109.895C109.663 37.6294 109.41 37.6228 109.182 37.5318C108.954 37.4407 108.766 37.2711 108.653 37.0537Z" fill="#617087"/>
  <path d="M115.528 36.3907V35.9767C115.517 35.7619 115.575 35.5494 115.694 35.3704C115.814 35.1915 115.987 35.0556 116.19 34.983C115.987 34.9104 115.814 34.7745 115.694 34.5956C115.575 34.4166 115.517 34.2041 115.528 33.9893V33.5753C115.531 33.388 115.574 33.2035 115.652 33.0334C115.731 32.8633 115.843 32.7112 115.983 32.5868C116.123 32.4623 116.288 32.3682 116.466 32.3103C116.644 32.2523 116.832 32.2319 117.018 32.2501H117.928C118.167 32.2403 118.404 32.2878 118.62 32.3887C118.836 32.4895 119.025 32.6408 119.171 32.8299L118.674 33.3271H118.508C118.433 33.1969 118.324 33.0896 118.193 33.0167C118.061 32.9438 117.913 32.908 117.763 32.9131H117.183C117.094 32.9057 117.005 32.9178 116.921 32.9485C116.837 32.9792 116.761 33.0277 116.698 33.0908C116.635 33.1538 116.587 33.2298 116.556 33.3135C116.525 33.3971 116.513 33.4865 116.521 33.5753V33.8236C116.521 34.3208 116.769 34.4858 117.183 34.4858H117.431V35.2313H117.183C116.686 35.2313 116.521 35.397 116.521 35.8935V36.1418C116.513 36.2306 116.525 36.3199 116.556 36.4036C116.587 36.4873 116.635 36.5633 116.698 36.6263C116.761 36.6893 116.837 36.7379 116.921 36.7686C117.005 36.7992 117.094 36.8113 117.183 36.804H118.094C118.183 36.8113 118.272 36.7992 118.356 36.7686C118.44 36.7379 118.516 36.6893 118.579 36.6263C118.642 36.5633 118.69 36.4873 118.721 36.4036C118.752 36.3199 118.764 36.2306 118.756 36.1418V35.8935C118.756 35.3963 118.508 35.2313 118.094 35.2313H117.928V34.4858H120.165V35.2313H119.337C119.585 35.397 119.668 35.5627 119.668 35.9767V36.3082C119.672 36.4979 119.635 36.6862 119.56 36.8602C119.484 37.0341 119.371 37.1895 119.229 37.3156C119.087 37.4416 118.92 37.5353 118.738 37.5902C118.557 37.6451 118.365 37.6598 118.177 37.6333H117.018C116.836 37.6617 116.651 37.6511 116.474 37.6021C116.297 37.5531 116.132 37.467 115.991 37.3494C115.85 37.2318 115.736 37.0854 115.656 36.9201C115.576 36.7548 115.532 36.5743 115.528 36.3907Z" fill="#617087"/>
  <path d="M122.815 37.0537L123.312 36.5565H123.478C123.553 36.6866 123.662 36.7939 123.793 36.8668C123.925 36.9397 124.073 36.9756 124.223 36.9704H124.886C124.974 36.9778 125.064 36.9657 125.148 36.935C125.231 36.9043 125.307 36.8558 125.37 36.7927C125.433 36.7297 125.482 36.6537 125.512 36.5701C125.543 36.4864 125.555 36.397 125.548 36.3082V35.9767C125.548 35.6453 125.382 35.5628 124.968 35.397L123.974 35.1488C123.063 34.983 122.733 34.569 122.733 33.9893V33.5753C122.733 32.8299 123.312 32.3334 124.223 32.3334H125.134C125.369 32.3422 125.6 32.398 125.814 32.4976C126.027 32.5971 126.219 32.7384 126.377 32.9131L125.879 33.4103H125.73C125.655 33.2802 125.546 33.1729 125.415 33.1C125.283 33.027 125.135 32.9912 124.985 32.9963H124.487C123.99 32.9963 123.742 33.162 123.742 33.576V33.8243C123.742 34.1557 123.908 34.3215 124.322 34.404L125.315 34.6523C126.143 34.818 126.558 35.1494 126.558 35.8117V36.2257C126.565 36.4087 126.532 36.591 126.463 36.7604C126.393 36.9299 126.288 37.0825 126.155 37.208C126.022 37.3335 125.863 37.429 125.69 37.4882C125.516 37.5473 125.333 37.5687 125.15 37.5509H124.073C123.838 37.6183 123.587 37.6061 123.36 37.5162C123.132 37.4263 122.941 37.2637 122.815 37.0537Z" fill="#617087"/>
  <path d="M127.388 36.1424V33.9061C127.408 33.4953 127.58 33.1067 127.871 32.8159C128.162 32.525 128.551 32.3528 128.961 32.3326H129.873C130.283 32.3528 130.672 32.525 130.963 32.8159C131.254 33.1067 131.426 33.4953 131.446 33.9061V36.1424C131.426 36.5532 131.254 36.9418 130.963 37.2326C130.672 37.5234 130.283 37.6957 129.873 37.7158H128.961C128.551 37.6957 128.162 37.5234 127.871 37.2326C127.58 36.9418 127.408 36.5532 127.388 36.1424ZM129.79 36.8879C129.906 36.8885 130.021 36.8646 130.127 36.8179C130.234 36.7712 130.329 36.7027 130.407 36.6167C130.485 36.5308 130.544 36.4294 130.581 36.3191C130.617 36.2089 130.63 36.0922 130.618 35.9767V33.9061C130.63 33.7906 130.617 33.6739 130.581 33.5636C130.544 33.4533 130.485 33.352 130.407 33.266C130.329 33.1801 130.234 33.1116 130.127 33.0648C130.021 33.0181 129.906 32.9943 129.79 32.9949H129.128C129.012 32.9943 128.897 33.0181 128.791 33.0648C128.684 33.1116 128.589 33.1801 128.511 33.266C128.433 33.352 128.374 33.4533 128.337 33.5636C128.301 33.6739 128.288 33.7906 128.3 33.9061V35.9767C128.299 36.2046 128.383 36.4246 128.537 36.5933C128.69 36.762 128.901 36.8671 129.128 36.8879H129.79Z" fill="#617087"/>
  <path d="M132.506 32.2999H133.417V36.8552H135.902V37.6006H132.506V32.2999Z" fill="#617087"/>
  <path d="M136.564 36.1424V32.2999H137.475V35.944C137.463 36.0595 137.476 36.1762 137.513 36.2864C137.549 36.3967 137.608 36.4981 137.686 36.584C137.764 36.6699 137.86 36.7385 137.966 36.7852C138.072 36.8319 138.187 36.8557 138.303 36.8552H138.965C139.192 36.8343 139.403 36.7292 139.557 36.5606C139.71 36.3919 139.794 36.1719 139.793 35.944V32.2999H140.705V36.1097C140.684 36.5205 140.512 36.9091 140.221 37.1999C139.93 37.4907 139.542 37.663 139.131 37.6831H138.22C137.8 37.684 137.395 37.5254 137.088 37.2394C136.781 36.9534 136.593 36.5613 136.564 36.1424Z" fill="#617087"/>
  <path d="M143.024 33.1279H141.467V32.3824H145.442V33.1279H143.869V37.6831H142.958V33.1279H143.024Z" fill="#617087"/>
  <path d="M146.337 32.2999H147.264V37.6006H146.35L146.337 32.2999Z" fill="#617087"/>
  <path d="M148.407 36.1424V33.9061C148.427 33.4953 148.6 33.1067 148.891 32.8159C149.181 32.525 149.57 32.3528 149.981 32.3326H150.892C151.303 32.3528 151.691 32.525 151.982 32.8159C152.273 33.1067 152.445 33.4953 152.465 33.9061V36.1424C152.445 36.5532 152.273 36.9418 151.982 37.2326C151.691 37.5234 151.303 37.6957 150.892 37.7158H149.981C149.57 37.6957 149.181 37.5234 148.891 37.2326C148.6 36.9418 148.427 36.5532 148.407 36.1424ZM150.809 36.8879C150.925 36.8885 151.04 36.8646 151.147 36.8179C151.253 36.7712 151.348 36.7027 151.426 36.6167C151.504 36.5308 151.564 36.4294 151.6 36.3191C151.636 36.2089 151.649 36.0922 151.637 35.9767V33.9061C151.649 33.7906 151.636 33.6739 151.6 33.5636C151.564 33.4533 151.504 33.352 151.426 33.266C151.348 33.1801 151.253 33.1116 151.147 33.0648C151.04 33.0181 150.925 32.9943 150.809 32.9949H150.147C150.031 32.9943 149.916 33.0181 149.81 33.0648C149.704 33.1116 149.608 33.1801 149.53 33.266C149.452 33.352 149.393 33.4533 149.357 33.5636C149.32 33.6739 149.307 33.7906 149.319 33.9061V35.9767C149.318 36.2046 149.403 36.4246 149.556 36.5933C149.709 36.762 149.92 36.8671 150.147 36.8879H150.809Z" fill="#617087"/>
  <path d="M153.542 32.2999H154.619L155.696 34.2873C156.027 34.9496 156.441 35.6125 156.773 36.358H156.855V32.2999H157.767V37.6006H156.69L155.613 35.6132C155.281 34.951 154.867 34.288 154.536 33.5426H154.453V37.6006H153.542V32.2999Z" fill="#617087"/>
  <path d="M158.759 37.0537L159.256 36.5565H159.422C159.497 36.6866 159.606 36.7939 159.737 36.8668C159.869 36.9397 160.017 36.9756 160.167 36.9704H160.83C160.918 36.9778 161.008 36.9657 161.092 36.935C161.175 36.9043 161.251 36.8558 161.314 36.7927C161.377 36.7297 161.426 36.6537 161.456 36.5701C161.487 36.4864 161.499 36.397 161.492 36.3082V35.9767C161.492 35.6453 161.326 35.5628 160.912 35.397L159.918 35.1488C159.007 34.983 158.676 34.569 158.676 33.9893V33.5753C158.676 32.8299 159.256 32.3334 160.167 32.3334H161.078C161.313 32.3421 161.544 32.398 161.758 32.4975C161.971 32.5971 162.163 32.7384 162.321 32.9131L161.823 33.4103H161.658C161.583 33.2802 161.474 33.1729 161.342 33.1C161.211 33.027 161.062 32.9912 160.912 32.9963H160.415C159.918 32.9963 159.67 33.162 159.67 33.576V33.8243C159.67 34.1557 159.835 34.3215 160.249 34.404L161.243 34.6523C162.071 34.818 162.485 35.1494 162.485 35.8117V36.2257C162.492 36.4086 162.459 36.5908 162.39 36.76C162.32 36.9293 162.215 37.0818 162.082 37.2072C161.949 37.3327 161.79 37.4282 161.617 37.4873C161.444 37.5465 161.26 37.5679 161.078 37.5502H160.001C159.768 37.6137 159.521 37.5997 159.297 37.5101C159.073 37.4205 158.884 37.2602 158.759 37.0537Z" fill="#617087"/>
  <path d="M96.3137 10.0543V12.7872H91.7584V26.9494H88.4459V12.7872H83.8906V10.0543H96.3137Z" fill="#617087"/>
  <path d="M102.111 12.7872V17.011H107.826V19.7438H102.111V24.2158H108.571V26.9487H98.7982V10.0543H108.571V12.7872H102.111Z" fill="#617087"/>
  <path d="M120.58 10.0543H116.624L110.575 26.9494H114.137L115.214 23.7193H121.922L122.999 26.9494H126.561L120.58 10.0543ZM116.191 21.0697L118.675 14.0298L121.16 21.0697H116.191Z" fill="#617087"/>
  <path d="M147.33 10.0543V26.9494H143.935V16.0172L139.461 26.9494H136.894L132.339 16.0172V26.9494H128.944V10.0543H132.837L138.137 22.6445L143.521 10.0557L147.33 10.0543Z" fill="#617087"/>
  <path d="M153.376 26.5021C152.5 26.1147 151.731 25.5174 151.14 24.7629C150.573 23.9983 150.281 23.0642 150.312 22.1126H153.956C154.013 22.7325 154.275 23.3156 154.702 23.7692C155.211 24.1922 155.864 24.4002 156.524 24.3489C156.851 24.3812 157.182 24.3465 157.495 24.2468C157.808 24.1472 158.098 23.9846 158.346 23.7692C158.552 23.5785 158.717 23.348 158.83 23.0917C158.944 22.8354 159.005 22.5587 159.009 22.2783C159.017 22.0481 158.977 21.8187 158.891 21.6049C158.805 21.3911 158.676 21.1974 158.511 21.0363C158.193 20.6954 157.794 20.4392 157.352 20.2909C156.732 20.0511 156.095 19.8573 155.447 19.7112C154.539 19.4492 153.653 19.1169 152.797 18.7175C152.129 18.3685 151.538 17.8899 151.058 17.3098C150.532 16.56 150.27 15.6572 150.312 14.7426C150.292 13.8048 150.552 12.8822 151.058 12.0923C151.586 11.3436 152.299 10.7444 153.128 10.3531C154.095 9.93924 155.141 9.7414 156.193 9.7734C157.7 9.70327 159.187 10.1408 160.416 11.016C160.956 11.4456 161.398 11.9856 161.712 12.5998C162.027 13.2141 162.206 13.8884 162.239 14.5776H158.595C158.599 14.2992 158.532 14.0243 158.402 13.7783C158.272 13.5322 158.082 13.323 157.849 13.1699C157.334 12.7587 156.685 12.5522 156.027 12.5902C155.46 12.5636 154.902 12.7399 154.453 13.0874C154.247 13.2731 154.087 13.5047 153.986 13.7637C153.885 14.0227 153.847 14.3017 153.874 14.5783C153.885 14.9989 154.03 15.4051 154.288 15.7377C154.591 16.0588 154.957 16.3127 155.365 16.4831C155.779 16.6489 156.441 16.8971 157.269 17.1454C158.177 17.4074 159.063 17.7396 159.92 18.1391C160.633 18.4896 161.257 18.9997 161.741 19.63C162.267 20.3798 162.529 21.2825 162.487 22.1971C162.484 23.0685 162.256 23.9244 161.825 24.6817C161.32 25.4724 160.602 26.1042 159.754 26.5041C158.75 26.9935 157.639 27.2213 156.524 27.1664C155.444 27.1312 154.379 26.907 153.377 26.5041L153.376 26.5021Z" fill="#617087"/>
  <path d="M42.3977 22.3118V27.0328H39.9131C38.143 27.1522 36.3943 26.5891 35.0264 25.4593C33.867 24.3824 33.2872 22.7265 33.2872 20.3244V13.6985H30.8858V9.06077H33.2866V4.67126H38.77V9.06077H42.3315V13.6985H38.77V20.4069C38.7161 20.9382 38.8639 21.4704 39.184 21.8978C39.6114 22.2179 40.1436 22.3657 40.6749 22.3118H42.3977Z" fill="#617087"/>
  <path d="M60.3029 10.9657C61.5997 12.5453 62.2508 14.5572 62.1252 16.5971V27.0321H56.6588V17.2601C56.7017 16.2426 56.3784 15.2435 55.7476 14.444C55.0472 13.7909 54.121 13.4347 53.1635 13.4501C52.206 13.4655 51.2917 13.8513 50.6127 14.5265C49.9058 15.3855 49.5507 16.4805 49.619 17.5908V27.116H44.1532L44.2358 9.14398H49.7022V12.4566C50.2316 11.3627 51.0719 10.4493 52.1178 9.83066C53.1638 9.21197 54.369 8.91547 55.5826 8.97825C56.4703 8.91542 57.3603 9.06261 58.1805 9.4079C59.0007 9.75319 59.7274 10.2869 60.3029 10.9657Z" fill="#617087"/>
  <path d="M78.8388 10.7665C80.4331 12.0861 81.4929 13.9405 81.8206 15.9839H76.0391C75.9189 15.2639 75.535 14.6143 74.9622 14.1616C74.3932 13.7233 73.693 13.4899 72.9748 13.4993C72.5129 13.4991 72.057 13.6032 71.641 13.804C71.225 14.0048 70.8598 14.297 70.5727 14.6588C69.8848 15.6195 69.5618 16.7939 69.6615 17.9714C69.5865 19.1464 69.9073 20.3126 70.5727 21.2839C70.8538 21.6524 71.2178 21.9494 71.6352 22.1508C72.0525 22.3523 72.5115 22.4525 72.9748 22.4434C73.695 22.4666 74.3999 22.2317 74.9622 21.7811C75.5246 21.3195 75.906 20.6741 76.0391 19.9588H81.8363C81.5307 22.0099 80.4666 23.8718 78.8545 25.1762C77.2015 26.4643 75.1522 27.1377 73.0573 27.0811C71.4444 27.128 69.8468 26.757 68.4196 26.0042C67.0725 25.2376 65.9567 24.1223 65.1895 22.7755C64.409 21.266 64.0109 19.5881 64.0301 17.8888C63.9918 16.1875 64.391 14.5049 65.1895 13.0021C65.889 11.6251 67.0248 10.5186 68.4196 9.85528C69.8804 9.11257 71.5022 8.74262 73.1405 8.77837C75.2094 8.78138 77.2168 9.48153 78.8388 10.7658V10.7665Z" fill="#617087"/>
  <path d="M11.2906 6.13821L11.6801 3.77773C11.7559 3.31209 11.7296 2.83553 11.6029 2.38107C11.4763 1.92661 11.2524 1.50511 10.9467 1.14577C10.641 0.78643 10.2609 0.497844 9.8326 0.300004C9.40431 0.102163 8.93813 -0.000201684 8.46636 2.98327e-07H3.49714L0.954559 16.2076C1.47816 13.6904 2.74181 11.3871 4.58342 9.59297C6.42503 7.79887 8.76062 6.59585 11.2906 6.13821Z" fill="#617087"/>
  <path d="M19.9693 26.3698C19.7255 25.4404 19.18 24.6182 18.4186 24.0322C17.6572 23.4461 16.7228 23.1293 15.7619 23.1315H13.5842C12.7694 23.1301 11.9721 22.8944 11.2874 22.4526C10.6028 22.0107 10.0596 21.3812 9.72269 20.6393C9.38578 19.8973 9.26933 19.0741 9.38722 18.2678C9.50511 17.4615 9.85236 16.7061 10.3876 16.0917C8.35401 16.7417 6.5596 17.9816 5.23237 19.6538C3.90515 21.326 3.10505 23.3551 2.93375 25.4831C2.93375 25.5495 2.93375 25.6157 2.93375 25.6816V26.1788L2.89215 26.1208V26.1788C3.15152 26.5784 3.43366 26.9628 3.73718 27.3301C5.91114 29.8804 8.99045 31.4869 12.3259 31.8109C12.7443 31.8513 13.1645 31.8707 13.5849 31.8689H19.3821C19.3821 31.8689 19.6883 29.6182 19.8541 28.6886C20.0136 27.9265 20.052 27.144 19.9693 26.3698Z" fill="#617087"/>
  <path d="M13.6259 5.93018C12.843 5.93108 12.0617 5.99953 11.2906 6.13478C9.17504 6.52275 7.18932 7.4312 5.51251 8.77822C3.83571 10.1252 2.52056 11.8684 1.68567 13.8506C0.850786 15.8328 0.522422 17.9917 0.730192 20.1324C0.937962 22.2732 1.67533 24.3286 2.8758 26.1133V25.492C2.8751 24.8925 2.92507 24.2941 3.02516 23.703C3.06677 23.4629 3.10769 23.2256 3.16566 22.991C3.22363 22.7564 3.28161 22.519 3.35595 22.2953C3.46469 21.9344 3.59473 21.5803 3.74538 21.2348C3.76944 21.1726 3.797 21.1118 3.82791 21.0527L3.91043 20.8706C3.93116 20.8136 3.95601 20.7582 3.98477 20.7048C4.01191 20.6425 4.04241 20.5817 4.07616 20.5227L4.16755 20.3488L4.26713 20.1667C4.31692 20.0842 4.3667 19.9928 4.42468 19.9103L4.52425 19.7364C4.99479 19.0022 5.5509 18.3266 6.18089 17.7237L6.32138 17.5914L6.61943 17.3186L6.85131 17.1283L7.16573 16.8801L7.29804 16.7307L7.62132 16.4988L7.79523 16.391L8.1267 16.1755L8.30061 16.076L8.47453 15.9764C8.7146 15.8522 8.95195 15.7281 9.20361 15.6204L9.38571 15.5378L9.48529 15.4962L9.66739 15.4219L9.76696 15.3803H9.80857C10.2683 15.2097 10.7385 15.0687 11.2163 14.9581L11.44 14.9083H11.6384L11.9447 14.8504L12.2509 14.8088H12.4555L12.9772 14.7671H13.0188C13.2164 14.7404 13.4155 14.7265 13.6149 14.7255H18.3523C19.2003 14.6755 20.0155 14.3805 20.6991 13.8763C21.3828 13.372 21.9054 12.6803 22.2037 11.8849C22.633 9.92085 22.9407 7.93216 23.1251 5.93018H13.6259Z" fill="#617087"/>
</svg>