<svg xmlns="http://www.w3.org/2000/svg" width="127" height="28" viewBox="0 0 127 28" fill="none">
  <g clip-path="url(#clip0_3_74)">
    <path d="M16.956 10.5422C16.7497 9.88462 16.1472 8.40654 15.9831 7.31527C15.6209 4.8983 16.8845 3.30652 18.045 2.94198C19.3473 2.57862 19.856 3.23267 20.36 4.75295C21.0118 7.06794 21.0844 10.1015 20.8652 14.4443C20.5804 20.3765 17.6125 27.5407 10.2348 27.3918C3.86636 27.2523 1.04845 23.1276 0.755405 16.8343C0.617088 13.8676 0.829252 10.902 2.05769 6.70809C2.70942 4.46226 3.29082 3.66286 5.31282 3.23268C6.90229 2.94199 6.75929 4.6041 6.39943 6.56393C5.60704 10.902 5.23897 12.9967 5.53202 17.9185C5.81568 23.1276 8.20809 25.1542 10.8127 25.1542C14.7195 25.2292 16.4543 21.9742 17.1811 17.2668C17.7543 13.5066 17.3218 11.6979 16.956 10.5422ZM100.255 15.6797C101.777 15.6797 102.213 17.479 101.85 18.5691C101.486 19.6521 100.186 20.8876 98.162 21.2474C97.7259 20.1597 97.5079 15.6797 100.255 15.6797ZM71.9756 18.1319C71.9756 16.907 71.3203 15.8931 70.5315 15.8931C69.8727 15.8931 68.3594 16.6139 68.3594 18.9301C68.3594 20.7446 69.0041 21.6049 69.2995 21.9742C71.3918 21.3201 71.9756 19.5795 71.9756 18.1319ZM49.4722 3.37685C49.3702 2.21643 48.4606 1.4264 47.2298 1.4264C45.8572 1.4264 44.5643 2.86697 44.7014 4.67677C44.7893 5.87002 45.4926 6.8511 46.8746 6.8511C48.4606 6.85227 49.6175 5.04365 49.4722 3.37685ZM61.2373 7.62589C61.1119 5.60276 60.6219 4.68966 59.5353 4.76468C58.0947 4.85141 57.4289 9.38411 57.7231 14.1489C57.9107 17.2574 58.3737 17.7368 58.805 17.7064C59.6021 17.6583 61.5139 12.1047 61.2373 7.62589ZM109.227 15.2413C108.331 18.9606 105.612 24.4322 101.557 24.4322C100.618 24.4322 98.9532 24.0676 98.9532 23.1276C98.9532 22.1136 105.324 21.9742 105.324 17.1238C105.324 15.3175 103.661 12.7822 101.199 12.7822C97.944 12.7822 94.7685 16.3303 94.7685 21.2486C94.7685 25.6582 97.5079 27.1058 100.257 27.1058C105.033 27.1058 107.927 23.1967 109.445 19.944C110.172 22.1148 110.599 27.1058 112.414 27.1058C113.135 27.1058 113.645 26.7436 114.514 24.7932C116.679 19.9428 118.779 14.3728 121.675 14.3728C122.757 14.3728 122.108 16.3303 124.712 16.3303C125.939 16.3303 126.804 15.3175 126.804 14.1548C126.804 12.4891 125.287 11.1916 122.975 11.1916C116.172 11.1916 114.731 21.3928 113.644 21.3928C111.834 21.3928 112.413 13.217 111.109 13.217C109.951 13.2159 109.382 14.5955 109.227 15.2413ZM51.3547 23.9211C52.4389 23.9211 54.3039 23.5695 55.7714 21.2193C54.9322 19.3556 54.3332 15.5895 54.25 14.2181C53.8186 7.20509 56.5205 0.608233 59.4779 0.425378C61.6464 0.294097 63.3812 2.34654 63.5805 5.67192C64.1138 14.4103 61.2033 18.058 59.7463 21.2052C59.9924 22.4254 62.0625 24.5025 64.0153 24.5025C64.7362 24.5025 65.6083 24.1403 65.8275 23.8473C65.6822 23.3444 65.5345 22.6939 65.5345 21.7503C65.5345 16.6866 68.7908 12.4165 71.6134 12.4165C73.8558 12.4165 75.158 15.382 75.158 17.3395C75.158 19.651 73.2029 21.5358 70.3111 23.3444C70.8198 23.8472 71.7552 24.213 72.5546 24.213C76.6819 24.213 78.841 19.2196 80.4399 14.66C80.7282 13.7902 81.2381 12.563 82.2485 12.563C83.9845 12.563 84.7113 23.9938 87.5972 23.9938C88.8315 23.9938 89.8419 21.4596 89.8419 19.5115C89.8419 18.0627 89.3355 17.9174 89.3355 15.8192C89.3355 13.5066 90.5663 11.5549 92.2343 11.5549C93.2459 11.5549 93.6116 12.563 93.6116 13.7902C93.6116 18.4214 90.2791 27.032 85.3665 27.032C81.6707 27.032 81.959 20.6649 80.6579 20.6649C79.2044 20.6649 77.1789 27.1035 70.0239 27.1035C68.8611 27.1035 67.6339 26.5256 66.6234 25.3652C64.8898 26.5256 63.4386 27.032 61.7742 27.032C59.1004 27.032 57.94 24.2821 56.858 24.2821C55.5534 24.2821 54.1105 27.1035 49.7652 27.1035C46.2932 27.1035 45.7142 22.4782 44.4869 22.4782C43.3991 22.4782 41.7358 27.1035 39.9283 27.1035C36.8854 27.1035 36.2407 19.0754 33.5587 19.0754C31.4617 19.0754 24.8331 27.2289 23.0338 27.0425C22.3105 26.9675 22.0058 26.4272 22.082 25.7028C22.1839 24.7017 23.0455 22.0222 23.3948 20.7551C23.9797 18.555 24.5166 16.1439 24.8166 15.375C25.1144 14.599 25.9173 14.0457 26.562 14.1055C26.8867 14.136 26.984 14.742 27.0848 15.2425C27.4505 17.0312 27.9604 18.8551 28.536 18.8551C29.5522 18.8551 32.9082 12.4153 34.861 12.4153C37.2522 12.4153 37.5383 22.5462 40.7922 22.5462C41.88 22.5462 42.6782 21.2463 43.3991 19.6498C43.473 16.9691 44.1962 13.1432 46.3659 13.1432C47.8862 13.1432 48.6106 16.5401 47.5217 19.5103C47.5193 23.0525 49.832 23.9211 51.3547 23.9211Z" fill="#617087"/>
  </g>
  <defs>
    <clipPath id="clip0_3_74">
      <rect width="126.084" height="26.9736" fill="white" transform="translate(0.716858 0.41272)"/>
    </clipPath>
  </defs>
</svg>