<svg xmlns="http://www.w3.org/2000/svg" width="170" height="74" viewBox="0 0 170 74" fill="none">
  <g opacity="0.5">
    <circle cx="1.46701" cy="1.92697" r="1.46701" fill="#00CC83"/>
    <circle cx="10.2691" cy="1.92709" r="1.46701" fill="#00CC83"/>
    <circle cx="19.0712" cy="1.92709" r="1.46701" fill="#00CC83"/>
    <circle cx="27.8733" cy="1.92709" r="1.46701" fill="#00CC83"/>
    <circle cx="36.6754" cy="1.92709" r="1.46701" fill="#00CC83"/>
    <circle cx="45.4769" cy="1.92709" r="1.46701" fill="#00CC83"/>
    <circle cx="54.2785" cy="1.92709" r="1.46701" fill="#00CC83"/>
    <circle cx="63.0811" cy="1.92709" r="1.46701" fill="#00CC83"/>
    <circle cx="71.8838" cy="1.92709" r="1.46701" fill="#00CC83"/>
    <circle cx="80.6859" cy="1.92709" r="1.46701" fill="#00CC83"/>
    <circle cx="1.46695" cy="10.7295" r="1.46701" fill="#00CC83"/>
    <circle cx="10.2691" cy="10.7295" r="1.46701" fill="#00CC83"/>
    <circle cx="19.0712" cy="10.7295" r="1.46701" fill="#00CC83"/>
    <circle cx="27.8733" cy="10.7295" r="1.46701" fill="#00CC83"/>
    <circle cx="36.6754" cy="10.7295" r="1.46701" fill="#00CC83"/>
    <circle cx="45.4769" cy="10.7295" r="1.46701" fill="#00CC83"/>
    <circle cx="54.2785" cy="10.7295" r="1.46701" fill="#00CC83"/>
    <circle cx="63.0811" cy="10.7295" r="1.46701" fill="#00CC83"/>
    <circle cx="71.8838" cy="10.7295" r="1.46701" fill="#00CC83"/>
    <circle cx="80.6859" cy="10.7295" r="1.46701" fill="#00CC83"/>
    <circle cx="1.46695" cy="19.5307" r="1.46701" fill="#00CC83"/>
    <circle cx="10.2691" cy="19.5307" r="1.46701" fill="#00CC83"/>
    <circle cx="19.0712" cy="19.5307" r="1.46701" fill="#00CC83"/>
    <circle cx="27.8733" cy="19.5307" r="1.46701" fill="#00CC83"/>
    <circle cx="36.6754" cy="19.5307" r="1.46701" fill="#00CC83"/>
    <circle cx="45.4769" cy="19.5307" r="1.46701" fill="#00CC83"/>
    <circle cx="54.2785" cy="19.5307" r="1.46701" fill="#00CC83"/>
    <circle cx="63.0811" cy="19.5307" r="1.46701" fill="#00CC83"/>
    <circle cx="71.8838" cy="19.5307" r="1.46701" fill="#00CC83"/>
    <circle cx="80.6859" cy="19.5307" r="1.46701" fill="#00CC83"/>
    <circle cx="1.46695" cy="28.3329" r="1.46701" fill="#00CC83"/>
    <circle cx="10.2691" cy="28.3329" r="1.46701" fill="#00CC83"/>
    <circle cx="19.0712" cy="28.3329" r="1.46701" fill="#00CC83"/>
    <circle cx="27.8733" cy="28.3329" r="1.46701" fill="#00CC83"/>
    <circle cx="36.6754" cy="28.3329" r="1.46701" fill="#00CC83"/>
    <circle cx="45.4769" cy="28.3329" r="1.46701" fill="#00CC83"/>
    <circle cx="54.2785" cy="28.3329" r="1.46701" fill="#00CC83"/>
    <circle cx="63.0811" cy="28.3329" r="1.46701" fill="#00CC83"/>
    <circle cx="71.8838" cy="28.3329" r="1.46701" fill="#00CC83"/>
    <circle cx="80.6859" cy="28.3329" r="1.46701" fill="#00CC83"/>
    <circle cx="1.46695" cy="37.135" r="1.46701" fill="#00CC83"/>
    <circle cx="10.2691" cy="37.135" r="1.46701" fill="#00CC83"/>
    <circle cx="19.0712" cy="37.135" r="1.46701" fill="#00CC83"/>
    <circle cx="27.8733" cy="37.135" r="1.46701" fill="#00CC83"/>
    <circle cx="36.6754" cy="37.135" r="1.46701" fill="#00CC83"/>
    <circle cx="45.4769" cy="37.135" r="1.46701" fill="#00CC83"/>
    <circle cx="54.2785" cy="37.135" r="1.46701" fill="#00CC83"/>
    <circle cx="63.0811" cy="37.135" r="1.46701" fill="#00CC83"/>
    <circle cx="71.8838" cy="37.135" r="1.46701" fill="#00CC83"/>
    <circle cx="80.6859" cy="37.135" r="1.46701" fill="#00CC83"/>
    <circle cx="1.46695" cy="45.9373" r="1.46701" fill="#00CC83"/>
    <circle cx="10.2691" cy="45.9373" r="1.46701" fill="#00CC83"/>
    <circle cx="19.0712" cy="45.9373" r="1.46701" fill="#00CC83"/>
    <circle cx="27.8733" cy="45.9373" r="1.46701" fill="#00CC83"/>
    <circle cx="36.6754" cy="45.9373" r="1.46701" fill="#00CC83"/>
    <circle cx="45.4769" cy="45.9373" r="1.46701" fill="#00CC83"/>
    <circle cx="54.2785" cy="45.9373" r="1.46701" fill="#00CC83"/>
    <circle cx="63.0811" cy="45.9373" r="1.46701" fill="#00CC83"/>
    <circle cx="71.8838" cy="45.9373" r="1.46701" fill="#00CC83"/>
    <circle cx="80.6859" cy="45.9373" r="1.46701" fill="#00CC83"/>
    <circle cx="1.46695" cy="54.7397" r="1.46701" fill="#00CC83"/>
    <circle cx="10.2691" cy="54.7397" r="1.46701" fill="#00CC83"/>
    <circle cx="19.0712" cy="54.7397" r="1.46701" fill="#00CC83"/>
    <circle cx="27.8733" cy="54.7397" r="1.46701" fill="#00CC83"/>
    <circle cx="36.6754" cy="54.7397" r="1.46701" fill="#00CC83"/>
    <circle cx="45.4769" cy="54.7397" r="1.46701" fill="#00CC83"/>
    <circle cx="54.2785" cy="54.7397" r="1.46701" fill="#00CC83"/>
    <circle cx="63.0811" cy="54.7397" r="1.46701" fill="#00CC83"/>
    <circle cx="71.8838" cy="54.7397" r="1.46701" fill="#00CC83"/>
    <circle cx="80.6859" cy="54.7397" r="1.46701" fill="#00CC83"/>
    <circle cx="1.46695" cy="63.5407" r="1.46701" fill="#00CC83"/>
    <circle cx="10.2691" cy="63.5407" r="1.46701" fill="#00CC83"/>
    <circle cx="19.0712" cy="63.5407" r="1.46701" fill="#00CC83"/>
    <circle cx="27.8733" cy="63.5407" r="1.46701" fill="#00CC83"/>
    <circle cx="36.6754" cy="63.5407" r="1.46701" fill="#00CC83"/>
    <circle cx="45.4769" cy="63.5407" r="1.46701" fill="#00CC83"/>
    <circle cx="54.2785" cy="63.5407" r="1.46701" fill="#00CC83"/>
    <circle cx="63.0811" cy="63.5407" r="1.46701" fill="#00CC83"/>
    <circle cx="71.8838" cy="63.5407" r="1.46701" fill="#00CC83"/>
    <circle cx="80.6859" cy="63.5407" r="1.46701" fill="#00CC83"/>
    <circle cx="1.46695" cy="72.3434" r="1.46701" fill="#00CC83"/>
    <circle cx="10.2691" cy="72.3434" r="1.46701" fill="#00CC83"/>
    <circle cx="19.0712" cy="72.3434" r="1.46701" fill="#00CC83"/>
    <circle cx="27.8733" cy="72.3434" r="1.46701" fill="#00CC83"/>
    <circle cx="36.6754" cy="72.3434" r="1.46701" fill="#00CC83"/>
    <circle cx="45.4769" cy="72.3434" r="1.46701" fill="#00CC83"/>
    <circle cx="54.2785" cy="72.3434" r="1.46701" fill="#00CC83"/>
    <circle cx="63.0811" cy="72.3434" r="1.46701" fill="#00CC83"/>
    <circle cx="71.8838" cy="72.3434" r="1.46701" fill="#00CC83"/>
    <circle cx="80.6859" cy="72.3434" r="1.46701" fill="#00CC83"/>
    <circle cx="88.8873" cy="1.92697" r="1.46701" fill="#00CC83"/>
    <circle cx="97.6889" cy="1.92709" r="1.46701" fill="#00CC83"/>
    <circle cx="106.491" cy="1.92709" r="1.46701" fill="#00CC83"/>
    <circle cx="115.293" cy="1.92709" r="1.46701" fill="#00CC83"/>
    <circle cx="124.096" cy="1.92709" r="1.46701" fill="#00CC83"/>
    <circle cx="132.897" cy="1.92709" r="1.46701" fill="#00CC83"/>
    <circle cx="141.698" cy="1.92709" r="1.46701" fill="#00CC83"/>
    <circle cx="150.502" cy="1.92709" r="1.46701" fill="#00CC83"/>
    <circle cx="159.304" cy="1.92709" r="1.46701" fill="#00CC83"/>
    <circle cx="168.106" cy="1.92709" r="1.46701" fill="#00CC83"/>
    <circle cx="88.8868" cy="10.7295" r="1.46701" fill="#00CC83"/>
    <circle cx="97.6889" cy="10.7295" r="1.46701" fill="#00CC83"/>
    <circle cx="106.491" cy="10.7295" r="1.46701" fill="#00CC83"/>
    <circle cx="115.293" cy="10.7295" r="1.46701" fill="#00CC83"/>
    <circle cx="124.096" cy="10.7295" r="1.46701" fill="#00CC83"/>
    <circle cx="132.897" cy="10.7295" r="1.46701" fill="#00CC83"/>
    <circle cx="141.698" cy="10.7295" r="1.46701" fill="#00CC83"/>
    <circle cx="150.502" cy="10.7295" r="1.46701" fill="#00CC83"/>
    <circle cx="159.304" cy="10.7295" r="1.46701" fill="#00CC83"/>
    <circle cx="168.106" cy="10.7295" r="1.46701" fill="#00CC83"/>
    <circle cx="88.8868" cy="19.5307" r="1.46701" fill="#00CC83"/>
    <circle cx="97.6889" cy="19.5307" r="1.46701" fill="#00CC83"/>
    <circle cx="106.491" cy="19.5307" r="1.46701" fill="#00CC83"/>
    <circle cx="115.293" cy="19.5307" r="1.46701" fill="#00CC83"/>
    <circle cx="124.096" cy="19.5307" r="1.46701" fill="#00CC83"/>
    <circle cx="132.897" cy="19.5307" r="1.46701" fill="#00CC83"/>
    <circle cx="141.698" cy="19.5307" r="1.46701" fill="#00CC83"/>
    <circle cx="150.502" cy="19.5307" r="1.46701" fill="#00CC83"/>
    <circle cx="159.304" cy="19.5307" r="1.46701" fill="#00CC83"/>
    <circle cx="168.106" cy="19.5307" r="1.46701" fill="#00CC83"/>
    <circle cx="88.8868" cy="28.3329" r="1.46701" fill="#00CC83"/>
    <circle cx="97.6889" cy="28.3329" r="1.46701" fill="#00CC83"/>
    <circle cx="106.491" cy="28.3329" r="1.46701" fill="#00CC83"/>
    <circle cx="115.293" cy="28.3329" r="1.46701" fill="#00CC83"/>
    <circle cx="124.096" cy="28.3329" r="1.46701" fill="#00CC83"/>
    <circle cx="132.897" cy="28.3329" r="1.46701" fill="#00CC83"/>
    <circle cx="141.698" cy="28.3329" r="1.46701" fill="#00CC83"/>
    <circle cx="150.502" cy="28.3329" r="1.46701" fill="#00CC83"/>
    <circle cx="159.304" cy="28.3329" r="1.46701" fill="#00CC83"/>
    <circle cx="168.106" cy="28.3329" r="1.46701" fill="#00CC83"/>
    <circle cx="88.8868" cy="37.135" r="1.46701" fill="#00CC83"/>
    <circle cx="97.6889" cy="37.135" r="1.46701" fill="#00CC83"/>
    <circle cx="106.491" cy="37.135" r="1.46701" fill="#00CC83"/>
    <circle cx="115.293" cy="37.135" r="1.46701" fill="#00CC83"/>
    <circle cx="124.096" cy="37.135" r="1.46701" fill="#00CC83"/>
    <circle cx="132.897" cy="37.135" r="1.46701" fill="#00CC83"/>
    <circle cx="141.698" cy="37.135" r="1.46701" fill="#00CC83"/>
    <circle cx="150.502" cy="37.135" r="1.46701" fill="#00CC83"/>
    <circle cx="159.304" cy="37.135" r="1.46701" fill="#00CC83"/>
    <circle cx="168.106" cy="37.135" r="1.46701" fill="#00CC83"/>
    <circle cx="88.8868" cy="45.9373" r="1.46701" fill="#00CC83"/>
    <circle cx="97.6889" cy="45.9373" r="1.46701" fill="#00CC83"/>
    <circle cx="106.491" cy="45.9373" r="1.46701" fill="#00CC83"/>
    <circle cx="115.293" cy="45.9373" r="1.46701" fill="#00CC83"/>
    <circle cx="124.096" cy="45.9373" r="1.46701" fill="#00CC83"/>
    <circle cx="132.897" cy="45.9373" r="1.46701" fill="#00CC83"/>
    <circle cx="141.698" cy="45.9373" r="1.46701" fill="#00CC83"/>
    <circle cx="150.502" cy="45.9373" r="1.46701" fill="#00CC83"/>
    <circle cx="159.304" cy="45.9373" r="1.46701" fill="#00CC83"/>
    <circle cx="168.106" cy="45.9373" r="1.46701" fill="#00CC83"/>
    <circle cx="88.8868" cy="54.7397" r="1.46701" fill="#00CC83"/>
    <circle cx="97.6889" cy="54.7397" r="1.46701" fill="#00CC83"/>
    <circle cx="106.491" cy="54.7397" r="1.46701" fill="#00CC83"/>
    <circle cx="115.293" cy="54.7397" r="1.46701" fill="#00CC83"/>
    <circle cx="124.096" cy="54.7397" r="1.46701" fill="#00CC83"/>
    <circle cx="132.897" cy="54.7397" r="1.46701" fill="#00CC83"/>
    <circle cx="141.698" cy="54.7397" r="1.46701" fill="#00CC83"/>
    <circle cx="150.502" cy="54.7397" r="1.46701" fill="#00CC83"/>
    <circle cx="159.304" cy="54.7397" r="1.46701" fill="#00CC83"/>
    <circle cx="168.106" cy="54.7397" r="1.46701" fill="#00CC83"/>
    <circle cx="88.8868" cy="63.5407" r="1.46701" fill="#00CC83"/>
    <circle cx="97.6889" cy="63.5407" r="1.46701" fill="#00CC83"/>
    <circle cx="106.491" cy="63.5407" r="1.46701" fill="#00CC83"/>
    <circle cx="115.293" cy="63.5407" r="1.46701" fill="#00CC83"/>
    <circle cx="124.096" cy="63.5407" r="1.46701" fill="#00CC83"/>
    <circle cx="132.897" cy="63.5407" r="1.46701" fill="#00CC83"/>
    <circle cx="141.698" cy="63.5407" r="1.46701" fill="#00CC83"/>
    <circle cx="150.502" cy="63.5407" r="1.46701" fill="#00CC83"/>
    <circle cx="159.304" cy="63.5407" r="1.46701" fill="#00CC83"/>
    <circle cx="168.106" cy="63.5407" r="1.46701" fill="#00CC83"/>
    <circle cx="88.8868" cy="72.3434" r="1.46701" fill="#00CC83"/>
    <circle cx="97.6889" cy="72.3434" r="1.46701" fill="#00CC83"/>
    <circle cx="106.491" cy="72.3434" r="1.46701" fill="#00CC83"/>
    <circle cx="115.293" cy="72.3434" r="1.46701" fill="#00CC83"/>
    <circle cx="124.096" cy="72.3434" r="1.46701" fill="#00CC83"/>
    <circle cx="132.897" cy="72.3434" r="1.46701" fill="#00CC83"/>
    <circle cx="141.698" cy="72.3434" r="1.46701" fill="#00CC83"/>
    <circle cx="150.502" cy="72.3434" r="1.46701" fill="#00CC83"/>
    <circle cx="159.304" cy="72.3434" r="1.46701" fill="#00CC83"/>
    <circle cx="168.106" cy="72.3434" r="1.46701" fill="#00CC83"/>
  </g>
</svg>