<svg xmlns="http://www.w3.org/2000/svg" width="170" height="75" viewBox="0 0 170 75" fill="none">
  <g opacity="0.6">
    <circle cx="1.86981" cy="2.25925" r="1.46701" fill="#204ECF"/>
    <circle cx="10.6715" cy="2.25925" r="1.46701" fill="#204ECF"/>
    <circle cx="19.4736" cy="2.25925" r="1.46701" fill="#204ECF"/>
    <circle cx="28.2757" cy="2.25925" r="1.46701" fill="#204ECF"/>
    <circle cx="37.0778" cy="2.25925" r="1.46701" fill="#204ECF"/>
    <circle cx="45.8793" cy="2.25925" r="1.46701" fill="#204ECF"/>
    <circle cx="54.6809" cy="2.25925" r="1.46701" fill="#204ECF"/>
    <circle cx="63.4836" cy="2.25925" r="1.46701" fill="#204ECF"/>
    <circle cx="72.2862" cy="2.25925" r="1.46701" fill="#204ECF"/>
    <circle cx="81.0883" cy="2.25925" r="1.46701" fill="#204ECF"/>
    <circle cx="1.86935" cy="11.0616" r="1.46701" fill="#204ECF"/>
    <circle cx="10.6715" cy="11.0616" r="1.46701" fill="#204ECF"/>
    <circle cx="19.4736" cy="11.0616" r="1.46701" fill="#204ECF"/>
    <circle cx="28.2757" cy="11.0616" r="1.46701" fill="#204ECF"/>
    <circle cx="37.0778" cy="11.0616" r="1.46701" fill="#204ECF"/>
    <circle cx="45.8793" cy="11.0616" r="1.46701" fill="#204ECF"/>
    <circle cx="54.6809" cy="11.0616" r="1.46701" fill="#204ECF"/>
    <circle cx="63.4836" cy="11.0616" r="1.46701" fill="#204ECF"/>
    <circle cx="72.2862" cy="11.0616" r="1.46701" fill="#204ECF"/>
    <circle cx="81.0883" cy="11.0616" r="1.46701" fill="#204ECF"/>
    <circle cx="1.86935" cy="19.8629" r="1.46701" fill="#204ECF"/>
    <circle cx="10.6715" cy="19.8629" r="1.46701" fill="#204ECF"/>
    <circle cx="19.4736" cy="19.8629" r="1.46701" fill="#204ECF"/>
    <circle cx="28.2757" cy="19.8629" r="1.46701" fill="#204ECF"/>
    <circle cx="37.0778" cy="19.8629" r="1.46701" fill="#204ECF"/>
    <circle cx="45.8793" cy="19.8629" r="1.46701" fill="#204ECF"/>
    <circle cx="54.6809" cy="19.8629" r="1.46701" fill="#204ECF"/>
    <circle cx="63.4836" cy="19.8629" r="1.46701" fill="#204ECF"/>
    <circle cx="72.2862" cy="19.8629" r="1.46701" fill="#204ECF"/>
    <circle cx="81.0883" cy="19.8629" r="1.46701" fill="#204ECF"/>
    <circle cx="1.86935" cy="28.665" r="1.46701" fill="#204ECF"/>
    <circle cx="10.6715" cy="28.665" r="1.46701" fill="#204ECF"/>
    <circle cx="19.4736" cy="28.665" r="1.46701" fill="#204ECF"/>
    <circle cx="28.2757" cy="28.665" r="1.46701" fill="#204ECF"/>
    <circle cx="37.0778" cy="28.665" r="1.46701" fill="#204ECF"/>
    <circle cx="45.8793" cy="28.665" r="1.46701" fill="#204ECF"/>
    <circle cx="54.6809" cy="28.665" r="1.46701" fill="#204ECF"/>
    <circle cx="63.4836" cy="28.665" r="1.46701" fill="#204ECF"/>
    <circle cx="72.2862" cy="28.665" r="1.46701" fill="#204ECF"/>
    <circle cx="81.0883" cy="28.665" r="1.46701" fill="#204ECF"/>
    <circle cx="1.86935" cy="37.4671" r="1.46701" fill="#204ECF"/>
    <circle cx="10.6715" cy="37.4671" r="1.46701" fill="#204ECF"/>
    <circle cx="19.4736" cy="37.4671" r="1.46701" fill="#204ECF"/>
    <circle cx="28.2757" cy="37.4671" r="1.46701" fill="#204ECF"/>
    <circle cx="37.0778" cy="37.4671" r="1.46701" fill="#204ECF"/>
    <circle cx="45.8793" cy="37.4671" r="1.46701" fill="#204ECF"/>
    <circle cx="54.6809" cy="37.4671" r="1.46701" fill="#204ECF"/>
    <circle cx="63.4836" cy="37.4671" r="1.46701" fill="#204ECF"/>
    <circle cx="72.2862" cy="37.4671" r="1.46701" fill="#204ECF"/>
    <circle cx="81.0883" cy="37.4671" r="1.46701" fill="#204ECF"/>
    <circle cx="1.86935" cy="46.2695" r="1.46701" fill="#204ECF"/>
    <circle cx="10.6715" cy="46.2695" r="1.46701" fill="#204ECF"/>
    <circle cx="19.4736" cy="46.2695" r="1.46701" fill="#204ECF"/>
    <circle cx="28.2757" cy="46.2695" r="1.46701" fill="#204ECF"/>
    <circle cx="37.0778" cy="46.2695" r="1.46701" fill="#204ECF"/>
    <circle cx="45.8793" cy="46.2695" r="1.46701" fill="#204ECF"/>
    <circle cx="54.6809" cy="46.2695" r="1.46701" fill="#204ECF"/>
    <circle cx="63.4836" cy="46.2695" r="1.46701" fill="#204ECF"/>
    <circle cx="72.2862" cy="46.2695" r="1.46701" fill="#204ECF"/>
    <circle cx="81.0883" cy="46.2695" r="1.46701" fill="#204ECF"/>
    <circle cx="1.86935" cy="55.0719" r="1.46701" fill="#204ECF"/>
    <circle cx="10.6715" cy="55.0719" r="1.46701" fill="#204ECF"/>
    <circle cx="19.4736" cy="55.0719" r="1.46701" fill="#204ECF"/>
    <circle cx="28.2757" cy="55.0719" r="1.46701" fill="#204ECF"/>
    <circle cx="37.0778" cy="55.0719" r="1.46701" fill="#204ECF"/>
    <circle cx="45.8793" cy="55.0719" r="1.46701" fill="#204ECF"/>
    <circle cx="54.6809" cy="55.0719" r="1.46701" fill="#204ECF"/>
    <circle cx="63.4836" cy="55.0719" r="1.46701" fill="#204ECF"/>
    <circle cx="72.2862" cy="55.0719" r="1.46701" fill="#204ECF"/>
    <circle cx="81.0883" cy="55.0719" r="1.46701" fill="#204ECF"/>
    <circle cx="1.86935" cy="63.8729" r="1.46701" fill="#204ECF"/>
    <circle cx="10.6715" cy="63.8729" r="1.46701" fill="#204ECF"/>
    <circle cx="19.4736" cy="63.8729" r="1.46701" fill="#204ECF"/>
    <circle cx="28.2757" cy="63.8729" r="1.46701" fill="#204ECF"/>
    <circle cx="37.0778" cy="63.8729" r="1.46701" fill="#204ECF"/>
    <circle cx="45.8793" cy="63.8729" r="1.46701" fill="#204ECF"/>
    <circle cx="54.6809" cy="63.8729" r="1.46701" fill="#204ECF"/>
    <circle cx="63.4836" cy="63.8729" r="1.46701" fill="#204ECF"/>
    <circle cx="72.2862" cy="63.8729" r="1.46701" fill="#204ECF"/>
    <circle cx="81.0883" cy="63.8729" r="1.46701" fill="#204ECF"/>
    <circle cx="1.86935" cy="72.6755" r="1.46701" fill="#204ECF"/>
    <circle cx="10.6715" cy="72.6755" r="1.46701" fill="#204ECF"/>
    <circle cx="19.4736" cy="72.6755" r="1.46701" fill="#204ECF"/>
    <circle cx="28.2757" cy="72.6755" r="1.46701" fill="#204ECF"/>
    <circle cx="37.0778" cy="72.6755" r="1.46701" fill="#204ECF"/>
    <circle cx="45.8793" cy="72.6755" r="1.46701" fill="#204ECF"/>
    <circle cx="54.6809" cy="72.6755" r="1.46701" fill="#204ECF"/>
    <circle cx="63.4836" cy="72.6755" r="1.46701" fill="#204ECF"/>
    <circle cx="72.2862" cy="72.6755" r="1.46701" fill="#204ECF"/>
    <circle cx="81.0883" cy="72.6755" r="1.46701" fill="#204ECF"/>
    <circle cx="89.2892" cy="2.25925" r="1.46701" fill="#204ECF"/>
    <circle cx="98.0914" cy="2.25925" r="1.46701" fill="#204ECF"/>
    <circle cx="106.893" cy="2.25925" r="1.46701" fill="#204ECF"/>
    <circle cx="115.696" cy="2.25925" r="1.46701" fill="#204ECF"/>
    <circle cx="124.498" cy="2.25925" r="1.46701" fill="#204ECF"/>
    <circle cx="133.299" cy="2.25925" r="1.46701" fill="#204ECF"/>
    <circle cx="142.101" cy="2.25925" r="1.46701" fill="#204ECF"/>
    <circle cx="150.904" cy="2.25925" r="1.46701" fill="#204ECF"/>
    <circle cx="159.706" cy="2.25925" r="1.46701" fill="#204ECF"/>
    <circle cx="168.508" cy="2.25925" r="1.46701" fill="#204ECF"/>
    <circle cx="89.2892" cy="11.0616" r="1.46701" fill="#204ECF"/>
    <circle cx="98.0914" cy="11.0616" r="1.46701" fill="#204ECF"/>
    <circle cx="106.893" cy="11.0616" r="1.46701" fill="#204ECF"/>
    <circle cx="115.696" cy="11.0616" r="1.46701" fill="#204ECF"/>
    <circle cx="124.498" cy="11.0616" r="1.46701" fill="#204ECF"/>
    <circle cx="133.299" cy="11.0616" r="1.46701" fill="#204ECF"/>
    <circle cx="142.101" cy="11.0616" r="1.46701" fill="#204ECF"/>
    <circle cx="150.904" cy="11.0616" r="1.46701" fill="#204ECF"/>
    <circle cx="159.706" cy="11.0616" r="1.46701" fill="#204ECF"/>
    <circle cx="168.508" cy="11.0616" r="1.46701" fill="#204ECF"/>
    <circle cx="89.2892" cy="19.8629" r="1.46701" fill="#204ECF"/>
    <circle cx="98.0914" cy="19.8629" r="1.46701" fill="#204ECF"/>
    <circle cx="106.893" cy="19.8629" r="1.46701" fill="#204ECF"/>
    <circle cx="115.696" cy="19.8629" r="1.46701" fill="#204ECF"/>
    <circle cx="124.498" cy="19.8629" r="1.46701" fill="#204ECF"/>
    <circle cx="133.299" cy="19.8629" r="1.46701" fill="#204ECF"/>
    <circle cx="142.101" cy="19.8629" r="1.46701" fill="#204ECF"/>
    <circle cx="150.904" cy="19.8629" r="1.46701" fill="#204ECF"/>
    <circle cx="159.706" cy="19.8629" r="1.46701" fill="#204ECF"/>
    <circle cx="168.508" cy="19.8629" r="1.46701" fill="#204ECF"/>
    <circle cx="89.2892" cy="28.665" r="1.46701" fill="#204ECF"/>
    <circle cx="98.0914" cy="28.665" r="1.46701" fill="#204ECF"/>
    <circle cx="106.893" cy="28.665" r="1.46701" fill="#204ECF"/>
    <circle cx="115.696" cy="28.665" r="1.46701" fill="#204ECF"/>
    <circle cx="124.498" cy="28.665" r="1.46701" fill="#204ECF"/>
    <circle cx="133.299" cy="28.665" r="1.46701" fill="#204ECF"/>
    <circle cx="142.101" cy="28.665" r="1.46701" fill="#204ECF"/>
    <circle cx="150.904" cy="28.665" r="1.46701" fill="#204ECF"/>
    <circle cx="159.706" cy="28.665" r="1.46701" fill="#204ECF"/>
    <circle cx="168.508" cy="28.665" r="1.46701" fill="#204ECF"/>
    <circle cx="89.2892" cy="37.4671" r="1.46701" fill="#204ECF"/>
    <circle cx="98.0914" cy="37.4671" r="1.46701" fill="#204ECF"/>
    <circle cx="106.893" cy="37.4671" r="1.46701" fill="#204ECF"/>
    <circle cx="115.696" cy="37.4671" r="1.46701" fill="#204ECF"/>
    <circle cx="124.498" cy="37.4671" r="1.46701" fill="#204ECF"/>
    <circle cx="133.299" cy="37.4671" r="1.46701" fill="#204ECF"/>
    <circle cx="142.101" cy="37.4671" r="1.46701" fill="#204ECF"/>
    <circle cx="150.904" cy="37.4671" r="1.46701" fill="#204ECF"/>
    <circle cx="159.706" cy="37.4671" r="1.46701" fill="#204ECF"/>
    <circle cx="168.508" cy="37.4671" r="1.46701" fill="#204ECF"/>
    <circle cx="89.2892" cy="46.2695" r="1.46701" fill="#204ECF"/>
    <circle cx="98.0914" cy="46.2695" r="1.46701" fill="#204ECF"/>
    <circle cx="106.893" cy="46.2695" r="1.46701" fill="#204ECF"/>
    <circle cx="115.696" cy="46.2695" r="1.46701" fill="#204ECF"/>
    <circle cx="124.498" cy="46.2695" r="1.46701" fill="#204ECF"/>
    <circle cx="133.299" cy="46.2695" r="1.46701" fill="#204ECF"/>
    <circle cx="142.101" cy="46.2695" r="1.46701" fill="#204ECF"/>
    <circle cx="150.904" cy="46.2695" r="1.46701" fill="#204ECF"/>
    <circle cx="159.706" cy="46.2695" r="1.46701" fill="#204ECF"/>
    <circle cx="168.508" cy="46.2695" r="1.46701" fill="#204ECF"/>
    <circle cx="89.2892" cy="55.0719" r="1.46701" fill="#204ECF"/>
    <circle cx="98.0914" cy="55.0719" r="1.46701" fill="#204ECF"/>
    <circle cx="106.893" cy="55.0719" r="1.46701" fill="#204ECF"/>
    <circle cx="115.696" cy="55.0719" r="1.46701" fill="#204ECF"/>
    <circle cx="124.498" cy="55.0719" r="1.46701" fill="#204ECF"/>
    <circle cx="133.299" cy="55.0719" r="1.46701" fill="#204ECF"/>
    <circle cx="142.101" cy="55.0719" r="1.46701" fill="#204ECF"/>
    <circle cx="150.904" cy="55.0719" r="1.46701" fill="#204ECF"/>
    <circle cx="159.706" cy="55.0719" r="1.46701" fill="#204ECF"/>
    <circle cx="168.508" cy="55.0719" r="1.46701" fill="#204ECF"/>
    <circle cx="89.2892" cy="63.8729" r="1.46701" fill="#204ECF"/>
    <circle cx="98.0914" cy="63.8729" r="1.46701" fill="#204ECF"/>
    <circle cx="106.893" cy="63.8729" r="1.46701" fill="#204ECF"/>
    <circle cx="115.696" cy="63.8729" r="1.46701" fill="#204ECF"/>
    <circle cx="124.498" cy="63.8729" r="1.46701" fill="#204ECF"/>
    <circle cx="133.299" cy="63.8729" r="1.46701" fill="#204ECF"/>
    <circle cx="142.101" cy="63.8729" r="1.46701" fill="#204ECF"/>
    <circle cx="150.904" cy="63.8729" r="1.46701" fill="#204ECF"/>
    <circle cx="159.706" cy="63.8729" r="1.46701" fill="#204ECF"/>
    <circle cx="168.508" cy="63.8729" r="1.46701" fill="#204ECF"/>
    <circle cx="89.2892" cy="72.6755" r="1.46701" fill="#204ECF"/>
    <circle cx="98.0914" cy="72.6755" r="1.46701" fill="#204ECF"/>
    <circle cx="106.893" cy="72.6755" r="1.46701" fill="#204ECF"/>
    <circle cx="115.696" cy="72.6755" r="1.46701" fill="#204ECF"/>
    <circle cx="124.498" cy="72.6755" r="1.46701" fill="#204ECF"/>
    <circle cx="133.299" cy="72.6755" r="1.46701" fill="#204ECF"/>
    <circle cx="142.101" cy="72.6755" r="1.46701" fill="#204ECF"/>
    <circle cx="150.904" cy="72.6755" r="1.46701" fill="#204ECF"/>
    <circle cx="159.706" cy="72.6755" r="1.46701" fill="#204ECF"/>
    <circle cx="168.508" cy="72.6755" r="1.46701" fill="#204ECF"/>
  </g>
</svg>