<svg xmlns="http://www.w3.org/2000/svg" width="16" height="12" viewBox="0 0 16 12" fill="none">
<path d="M1.20288 5.25C0.788667 5.25 0.452881 5.58579 0.452881 6C0.452881 6.41421 0.788667 6.75 1.20288 6.75L1.20288 5.25ZM15.7332 6.53033C16.0261 6.23744 16.0261 5.76256 15.7332 5.46967L10.9602 0.696699C10.6673 0.403806 10.1925 0.403806 9.89958 0.696699C9.60669 0.989593 9.60669 1.46447 9.89958 1.75736L14.1422 6L9.89958 10.2426C9.60669 10.5355 9.60669 11.0104 9.89958 11.3033C10.1925 11.5962 10.6673 11.5962 10.9602 11.3033L15.7332 6.53033ZM1.20288 6.75L15.2029 6.75V5.25L1.20288 5.25L1.20288 6.75Z" fill="white"/>
</svg>