<svg xmlns="http://www.w3.org/2000/svg" width="11" height="7" viewBox="0 0 11 7" fill="none">
<path d="M10.8901 1.24625L10.339 0.69522C10.2656 0.621637 10.181 0.584961 10.0854 0.584961C9.98999 0.584961 9.90544 0.621637 9.83201 0.69522L5.50006 5.02694L1.1683 0.695336C1.09483 0.621753 1.01028 0.585077 0.914772 0.585077C0.819222 0.585077 0.734674 0.621753 0.661245 0.695336L0.110259 1.2464C0.0366758 1.31983 0 1.40438 0 1.49993C0 1.5954 0.0367916 1.67995 0.110259 1.75337L5.24653 6.88976C5.31996 6.96323 5.40455 6.99994 5.50006 6.99994C5.59557 6.99994 5.68 6.96323 5.75339 6.88976L10.8901 1.75337C10.9635 1.67991 11 1.59536 11 1.49993C11 1.40438 10.9635 1.31983 10.8901 1.24625Z" fill="#14212D"/>
</svg>