<svg xmlns="http://www.w3.org/2000/svg" width="11" height="7" viewBox="0 0 11 7" fill="none">
<path d="M0.109911 5.75375L0.660975 6.30478C0.734403 6.37836 0.818989 6.41504 0.914617 6.41504C1.01001 6.41504 1.09456 6.37836 1.16799 6.30478L5.49994 1.97306L9.8317 6.30466C9.90517 6.37825 9.98972 6.41492 10.0852 6.41492C10.1808 6.41492 10.2653 6.37825 10.3388 6.30466L10.8897 5.7536C10.9633 5.68017 11 5.59562 11 5.50007C11 5.4046 10.9632 5.32005 10.8897 5.24663L5.75347 0.110237C5.68004 0.0367694 5.59545 5.48406e-05 5.49994 5.48323e-05C5.40443 5.48239e-05 5.32 0.0367694 5.24661 0.110237L0.109911 5.24662C0.036482 5.32009 8.83319e-08 5.40464 7.99888e-08 5.50007C7.16355e-08 5.59562 0.0364819 5.68017 0.109911 5.75375Z" fill="#2277B9"/>
</svg>