<svg xmlns="http://www.w3.org/2000/svg" width="36" height="30" viewBox="0 0 36 30" fill="none">
<path d="M32.9666 0H2.26205C1.00124 0 0 1.03832 0 2.26205V27.7379C0 28.9988 1.03832 30 2.26205 30H32.9295C34.1904 30 35.1916 28.9617 35.1916 27.7379V2.29913C35.2287 1.03832 34.1904 0 32.9666 0ZM2.26205 1.77998H32.9295C33.2262 1.77998 33.4487 2.00247 33.4487 2.29913V6.78616H1.77998V2.29913C1.77998 2.00247 2.00247 1.77998 2.26205 1.77998ZM32.9666 28.2571H2.26205C1.96539 28.2571 1.74289 28.0346 1.74289 27.7379V8.56613H33.4487V27.7379C33.4487 28.0346 33.2262 28.2571 32.9666 28.2571Z" fill="#2277B9"/>
</svg>