<svg xmlns="http://www.w3.org/2000/svg" width="148" height="148" viewBox="0 0 148 148" fill="none">
  <circle cx="74" cy="74" r="74" fill="white"/>
  <g filter="url(#filter0_i_64_2302)">
    <path d="M73.9995 30.6831C50.0959 30.6831 30.6824 50.0966 30.6824 74.0002C30.6824 97.9038 50.0959 117.317 73.9995 117.317C97.9031 117.317 117.317 97.7718 117.317 73.8681C117.317 50.0966 97.9031 30.6831 73.9995 30.6831Z" fill="white"/>
  </g>
  <path d="M73.999 100.171C59.5258 100.171 47.8283 88.3744 47.8283 74.0003C47.8283 59.6262 59.6249 47.8296 73.999 47.8296C88.4722 47.8296 100.17 59.6262 100.17 74.0003C100.17 88.3744 88.4722 100.171 73.999 100.171Z" fill="#21263B"/>
  <path d="M30.6874 109.877L27.8704 106.359L28.7155 105.656L32.3776 110.299L26.3211 115.223L25.6169 114.379L30.5466 110.44C30.6874 110.44 30.6874 110.299 30.6874 110.158C30.6874 110.017 30.6874 110.017 30.6874 109.877Z" fill="#21263B"/>
  <path d="M26.322 103.968L23.9276 100.028L24.9135 99.4656L28.0122 104.671L21.2515 108.751L18.1528 103.546L19.1387 102.983L21.5332 106.922C21.5332 107.063 21.674 107.063 21.8149 107.063C21.9557 107.063 21.9557 107.063 22.0966 107.063L23.3642 106.219C23.505 106.219 23.505 106.078 23.505 106.078C23.505 105.937 23.505 105.937 23.505 105.797L21.9557 103.124L22.9417 102.561L24.3501 105.093C24.3501 105.234 24.491 105.234 24.6318 105.234C24.7727 105.234 24.7727 105.234 24.9135 105.234L26.1812 104.53C26.322 104.53 26.322 104.39 26.322 104.249C26.4629 104.249 26.4629 104.108 26.322 103.968Z" fill="#21263B"/>
  <path d="M17.4473 102.138L15.0529 96.651L16.0388 96.229L16.8839 98.058C16.8839 98.1986 17.0248 98.1986 17.1656 98.3393C17.3065 98.3393 17.3065 98.3393 17.4473 98.3393L23.2221 95.8069L23.6447 96.651L17.8699 99.3242C17.729 99.3242 17.729 99.4649 17.5882 99.6056C17.4473 99.7462 17.5882 99.7463 17.5882 99.8869L18.4333 101.716L17.4473 102.138Z" fill="#21263B"/>
  <path d="M14.7729 95.3854L14.4912 94.4005L15.3363 94.1191C15.618 94.1191 15.7588 94.1191 16.0405 94.1191C16.3222 94.1191 16.3222 94.4005 16.4631 94.5412L16.6039 94.6819L16.1814 94.8226C16.1814 94.6819 16.0405 94.6819 16.0405 94.5412C16.0405 94.5412 16.0405 94.5412 15.8997 94.5412C15.7588 94.5412 15.8997 94.5412 15.8997 94.5412L16.0405 94.8226L14.7729 95.3854Z" fill="#21263B"/>
  <path d="M13.5044 81.879H13.6452L13.9269 82.8639H13.7861C13.5044 82.8639 13.2227 83.1452 13.0818 83.4266C12.941 83.708 12.8001 83.9894 12.941 84.2708L14.2086 90.0391C14.2086 90.3205 14.4903 90.6019 14.772 90.7426C14.9128 91.024 15.1945 91.1647 15.4762 91.024C15.7579 91.024 16.0396 90.7426 16.1805 90.4612C16.3213 90.3205 16.4622 89.8984 16.3213 89.6171L15.0537 83.8487C14.9128 83.2859 15.0537 82.7232 15.3354 82.1604C15.6171 81.5976 16.1805 81.3162 16.7439 81.1756C17.3073 81.0349 17.8707 81.1756 18.4341 81.4569C18.9975 81.7383 19.2792 82.3011 19.42 82.8639L20.6876 88.6322C20.8285 89.195 20.6876 89.7578 20.4059 90.3205C20.1242 90.8833 19.5609 91.1647 18.9975 91.3054H18.8566L18.5749 90.3205H18.7158C18.9975 90.1798 19.2792 90.0391 19.42 89.7578C19.5609 89.4764 19.7017 89.195 19.5609 88.9136L18.2932 83.1452C18.2932 82.8639 18.0115 82.5825 17.7298 82.4418C17.4481 82.3011 17.1664 82.1604 16.8847 82.3011C16.603 82.3011 16.3213 82.5825 16.1805 82.8639C16.0396 83.1452 15.8988 83.4266 16.0396 83.708L17.3073 89.4764C17.4481 90.0391 17.3073 90.6019 17.0256 91.1647C16.7439 91.7274 16.1805 92.0088 15.6171 92.1495C15.0537 92.2902 14.4903 92.1495 13.9269 91.8681C13.3635 91.5867 13.0818 91.024 12.941 90.4612L11.6733 84.6928C11.5325 84.1301 11.6733 83.5673 11.955 83.0045C12.2367 82.4418 12.941 82.0197 13.5044 81.879Z" fill="#21263B"/>
  <path d="M11.3917 65.6995L11.5326 64.574L19.1384 67.1064V67.8099L15.0538 69.2168C14.9129 69.2168 14.7721 69.3575 14.7721 69.4982C14.7721 69.6389 14.7721 69.7796 15.0538 69.9203L18.9976 71.8899V72.5934L10.8283 73.8596L10.9692 72.7341L15.1946 72.0306C15.3355 72.0306 15.4763 71.8899 15.4763 71.8899C15.4763 71.7493 15.6172 71.7493 15.4763 71.6086C15.4763 71.4679 15.3355 71.4679 15.1946 71.3272L11.11 69.2168L15.4763 67.8099C15.6172 67.8099 15.6172 67.6692 15.758 67.5285C15.758 67.3878 15.758 67.2471 15.758 67.2471C15.758 67.1064 15.6172 67.1064 15.4763 66.9657L11.3917 65.6995Z" fill="#21263B"/>
  <path d="M13.6454 55.9917C13.9271 54.8662 14.4905 54.022 15.3355 53.4593C16.1806 53.0372 17.1666 52.8965 18.4342 53.3186C19.7019 53.6 20.4061 54.1627 20.9695 55.0069C21.392 55.851 21.5329 56.8359 21.2512 58.1021L20.5469 60.6345C20.2653 61.7601 19.7019 62.6042 18.8568 63.167C18.0117 63.5891 17.0257 63.7298 15.7581 63.3077C14.4905 62.8856 13.6454 62.3228 13.082 61.6194C12.6594 60.7752 12.5186 59.7904 12.8003 58.5242L13.6454 55.9917ZM20.1244 57.8207C20.1244 57.5393 20.2653 57.3986 20.2653 57.1172C20.2653 56.8359 20.2653 56.6952 20.2653 56.2731C20.2653 55.9917 20.1244 55.7103 19.9836 55.4289C19.8427 55.1476 19.561 55.0069 19.2793 54.7255C18.9976 54.4441 18.5751 54.3034 18.1525 54.1627C17.73 54.022 17.3074 54.022 16.8849 54.022C16.4623 54.022 16.1806 54.1627 15.8989 54.3034C15.6172 54.4441 15.4764 54.5848 15.1947 54.8662C15.0539 55.1476 14.913 55.2883 14.7722 55.5696C14.6313 55.851 14.6313 55.9917 14.4905 56.2731L13.7862 58.8055C13.7862 59.0869 13.6454 59.2276 13.6454 59.509C13.6454 59.7904 13.6454 59.9311 13.6454 60.3532C13.6454 60.6345 13.7862 60.9159 13.9271 61.1973C14.0679 61.4787 14.3496 61.6194 14.6313 61.9008C14.913 62.1821 15.3355 62.3228 15.7581 62.4635C16.1806 62.6042 16.6032 62.6042 17.0257 62.6042C17.4483 62.6042 17.73 62.4635 18.0117 62.3228C18.2934 62.1821 18.4342 62.0415 18.7159 61.7601C18.8568 61.4787 18.9976 61.338 19.1385 61.0566C19.2793 60.9159 19.2793 60.6345 19.4202 60.3532L20.1244 57.8207Z" fill="#21263B"/>
  <path d="M25.336 44.1725L27.5896 43.4691L26.8853 44.876L24.6317 45.5794C24.4909 45.5794 24.4909 45.7201 24.35 45.7201L21.6739 50.785C21.6739 50.9257 21.6739 50.9257 21.6739 51.0664C21.6739 51.2071 21.8148 51.2071 21.8148 51.3478L23.0824 52.0512L22.6599 53.0361L15.7583 49.3781L19.1386 42.9063C19.5612 42.2028 19.9837 41.7808 20.8288 41.4994C21.5331 41.218 22.2373 41.218 22.9416 41.4994C23.5049 41.7808 23.9275 42.0621 24.2092 42.4842C24.4909 42.9063 24.7726 43.4691 24.7726 44.0318C24.7726 44.1725 24.9134 44.3132 24.9134 44.3132C25.1951 44.3132 25.1951 44.3132 25.336 44.1725ZM23.5049 45.1574C23.7866 44.7353 23.7866 44.1725 23.6458 43.7504C23.5049 43.3284 23.2232 42.9063 22.8007 42.6249C22.3782 42.3435 21.8148 42.2028 21.2514 42.3435C20.688 42.4842 20.2654 42.7656 19.9837 43.3284L17.1668 48.534C17.1668 48.6746 17.1668 48.6746 17.1668 48.8153C17.1668 48.956 17.3076 48.956 17.3076 49.0967L19.9837 50.5036C20.1246 50.5036 20.1246 50.5036 20.2654 50.5036C20.4063 50.5036 20.4063 50.363 20.5471 50.363L23.5049 45.1574Z" fill="#21263B"/>
  <path d="M26.7431 38.1243C26.7431 38.265 26.7431 38.265 26.8839 38.4057C27.0248 38.4057 27.0248 38.5464 27.1656 38.5464L32.2362 37.8429L31.3911 38.9684L27.5882 39.5312C27.4473 39.5312 27.3065 39.6719 27.3065 39.8126C27.3065 39.9533 27.3065 40.094 27.4473 40.2347L29.4192 41.6416L28.7149 42.4857L22.5176 37.7022L23.2219 36.8581L25.1937 38.4057C25.3346 38.5464 25.4754 38.5464 25.6163 38.4057C25.7571 38.265 25.898 38.1243 25.7571 37.9836L25.1937 34.1849L26.1797 32.9187L26.7431 38.1243Z" fill="#21263B"/>
  <path d="M31.2515 27.7123L35.7587 23.9136L36.4629 24.7577L34.9136 26.024C34.7727 26.1646 34.7727 26.1646 34.7727 26.3053C34.7727 26.446 34.7727 26.446 34.9136 26.5867L38.9982 31.5109L38.1531 32.2144L34.0685 27.2902C33.9276 27.1495 33.9276 27.1495 33.7868 27.1495C33.6459 27.1495 33.6459 27.1495 33.5051 27.2902L31.9557 28.4157L31.2515 27.7123Z" fill="#21263B"/>
  <path d="M42.6602 19.2709C43.787 18.5674 44.7729 18.4268 45.618 18.7081C46.604 18.9895 47.4491 19.5523 48.0125 20.6778C48.7167 21.8034 48.8576 22.7882 48.5759 23.6324C48.2942 24.6172 47.7308 25.3207 46.604 26.0241L44.3504 27.431C43.2236 28.1345 42.2377 28.2752 41.3926 27.9938C40.4066 27.7124 39.7024 27.1496 38.9982 26.0241C38.2939 24.8986 38.1531 23.9137 38.4348 23.0696C38.7165 22.0847 39.4207 21.2406 40.4066 20.6778L42.6602 19.2709ZM46.1814 25.0393C46.3223 24.8986 46.604 24.7579 46.7448 24.6172C46.8857 24.4765 47.0265 24.3358 47.3082 24.0544C47.4491 23.773 47.5899 23.4917 47.5899 23.351C47.5899 23.0696 47.5899 22.7882 47.5899 22.3661C47.4491 21.944 47.3082 21.6627 47.1674 21.2406C46.8857 20.8185 46.604 20.5371 46.3223 20.2557C46.0406 19.9744 45.7589 19.8337 45.4772 19.8337C45.1955 19.693 44.9138 19.693 44.6321 19.8337C44.3504 19.8337 44.0687 19.9744 43.9279 19.9744C43.6462 20.1151 43.5053 20.1151 43.3645 20.2557L41.1109 21.6627C40.97 21.8034 40.6883 21.944 40.5475 22.0847C40.4066 22.2254 40.2658 22.3661 39.9841 22.6475C39.8432 22.9289 39.7024 23.2103 39.7024 23.351C39.7024 23.6323 39.7024 23.9137 39.7024 24.3358C39.8432 24.7579 39.9841 25.0393 40.1249 25.4613C40.2658 25.8834 40.6883 26.1648 40.97 26.4462C41.2517 26.7276 41.5334 26.8683 41.8151 26.8683C42.0968 27.009 42.3785 27.009 42.6602 26.8683C42.9419 26.8683 43.2236 26.7276 43.3645 26.7276C43.6462 26.5869 43.787 26.5869 43.9279 26.4462L46.1814 25.0393Z" fill="#21263B"/>
  <path d="M58.5756 17.7228L56.8854 18.2855L56.6037 17.3007L59.5616 16.3159L60.8292 20.1145L59.8433 20.3959C59.8433 20.2552 59.7024 20.2552 59.5616 20.1145C59.4207 20.1145 59.2799 20.1145 59.2799 20.2552C58.8573 20.6773 58.2939 20.9587 57.7305 21.0994L54.6319 22.0842C53.5051 22.5063 52.5191 22.5063 51.5332 22.0842C50.6881 21.6621 49.9839 20.818 49.7022 19.6925C49.2796 18.5669 49.2796 17.4414 49.7022 16.5972C50.1247 15.7531 50.9698 15.0496 52.0966 14.6276L55.0544 13.6427C55.7587 13.3613 56.4629 13.3613 57.0263 13.3613C57.5897 13.502 58.1531 13.6427 58.7165 14.0648L58.8573 14.2055L58.2939 15.1903L58.1531 15.0496C57.4488 14.3462 56.4629 14.2055 55.477 14.6276L52.5191 15.6124C52.2374 15.7531 52.0966 15.7531 51.8149 15.8938C51.674 16.1752 51.5332 16.4565 51.2515 16.5972C50.9698 16.7379 50.829 17.0193 50.6881 17.3007C50.5473 17.5821 50.5473 17.8635 50.5473 18.2855C50.5473 18.7076 50.5473 19.1297 50.829 19.5518C50.9698 19.9738 51.1106 20.3959 51.3923 20.6773C51.674 20.9587 51.8149 21.2401 52.0966 21.2401C52.3783 21.2401 52.66 21.3808 52.9417 21.5215C53.2234 21.5215 53.5051 21.5215 53.6459 21.5215C53.9276 21.5215 54.0685 21.3808 54.3502 21.3808L57.4488 20.3959C58.4348 20.1145 58.9982 19.5518 59.2799 18.8483C59.2799 18.7076 59.2799 18.7076 59.2799 18.5669L59.139 18.1448C59.139 18.0042 58.9982 18.0042 58.9982 18.0042C58.9982 18.0042 58.7165 17.7228 58.5756 17.7228Z" fill="#21263B"/>
  <path d="M63.9286 18.5669L68.4358 17.8635L68.5766 18.989L62.661 19.9739L61.3933 12.2358L67.309 11.251L67.5907 12.2358L63.0835 12.9393C62.9427 12.9393 62.9427 13.08 62.8018 13.08C62.8018 13.2207 62.661 13.2207 62.661 13.3614L62.9427 14.909C62.9427 15.0497 63.0835 15.0497 63.0835 15.1903C63.2244 15.1903 63.2244 15.331 63.3652 15.331L66.4639 14.909L66.6047 16.0345L63.5061 16.4566C63.3652 16.4566 63.3652 16.5973 63.2244 16.5973C63.0835 16.5973 63.0835 16.738 63.0835 16.8786L63.3652 18.2856C63.3652 18.4263 63.3652 18.4263 63.5061 18.5669C63.7878 18.5669 63.7878 18.7076 63.9286 18.5669Z" fill="#21263B"/>
  <path d="M68.999 11.1107L74.9147 10.8293V11.9549H72.9428C72.8019 11.9549 72.8019 11.9549 72.6611 12.0956C72.5202 12.2363 72.5202 12.2363 72.5202 12.377L72.8019 18.8488H71.6751L71.3935 12.5176C71.3935 12.377 71.3935 12.2363 71.3935 12.2363C71.3935 12.2363 71.2526 12.0956 71.1118 12.0956H69.1399L68.999 11.1107Z" fill="#21263B"/>
  <path d="M86.6062 12.0956L87.5921 12.2363L86.6062 19.9743L85.6202 19.8336L86.0428 16.8791C86.0428 16.7384 86.0428 16.7384 85.9019 16.5977C85.7611 16.457 85.7611 16.457 85.6202 16.457L78.1552 15.4722C78.0144 15.4722 78.0144 15.4722 77.8736 15.6129C77.7327 15.7536 77.7327 15.7536 77.7327 15.8942L77.3102 18.8488L76.3242 18.7081L77.3102 10.8293L78.4369 10.97L78.0144 13.9246C78.0144 14.0653 78.0144 14.0653 78.1552 14.2059C78.1552 14.3466 78.2961 14.3466 78.4369 14.3466L85.9019 15.3315C86.0428 15.3315 86.0428 15.3315 86.1836 15.1908C86.3245 15.1908 86.3245 15.0501 86.3245 14.9094L86.6062 12.0956Z" fill="#21263B"/>
  <path d="M90.1266 19.9745L94.4929 21.3814L94.2112 22.3662L88.4364 20.5372L90.8308 13.0806L96.6056 14.9096L96.3239 15.8944L91.9576 14.4875C91.8168 14.4875 91.8168 14.4875 91.6759 14.4875C91.5351 14.4875 91.5351 14.6282 91.5351 14.7689L91.1125 16.1758C91.1125 16.3165 91.1125 16.3165 91.1125 16.4572C91.1125 16.5979 91.2534 16.5979 91.3942 16.5979L94.352 17.5827L94.0703 18.5675L90.8308 17.8641C90.69 17.8641 90.69 17.8641 90.5491 17.8641C90.4083 17.8641 90.4083 18.0048 90.4083 18.1455L89.9857 19.5524C89.9857 19.6931 89.9857 19.6931 89.9857 19.8338C89.9857 19.9745 89.9857 19.9745 90.1266 19.9745Z" fill="#21263B"/>
  <path d="M104.071 25.4618L104.775 27.7129L103.366 27.0094L102.662 24.7584C102.662 24.6177 102.521 24.6177 102.521 24.477L97.4508 21.8038C97.31 21.8038 97.31 21.8038 97.1691 21.8038C97.0283 21.8038 97.0283 21.9445 96.8874 21.9445L96.1832 23.2107L95.3381 22.7887L99.0001 15.8948L105.479 19.2714C106.183 19.6935 106.606 20.2562 106.888 20.9597C107.169 21.6631 107.169 22.3666 106.888 23.0701C106.606 23.6328 106.324 24.0549 105.902 24.3363C105.479 24.6177 104.916 24.899 104.352 24.899C104.212 24.899 104.071 25.0397 104.071 25.0397C104.071 25.1804 104.071 25.3211 104.071 25.4618ZM103.226 23.6328C103.648 23.9142 104.212 23.9142 104.634 23.7735C105.197 23.6328 105.479 23.3514 105.761 22.9294C106.043 22.5073 106.183 21.9445 106.043 21.3818C105.902 20.819 105.62 20.3969 105.057 20.1155L99.8452 17.3017C99.7044 17.3017 99.7044 17.3017 99.5635 17.3017C99.4227 17.3017 99.4227 17.4424 99.2818 17.4424L97.8733 20.1155C97.8733 20.2562 97.8733 20.2562 97.8733 20.3969C97.8733 20.5376 98.0142 20.5376 98.0142 20.6783L103.226 23.6328Z" fill="#21263B"/>
  <path d="M112.521 28.2747C112.662 28.2747 112.803 28.2747 112.943 28.4154C113.084 28.556 113.084 28.6967 113.084 28.8374C113.084 28.9781 113.084 29.1188 112.943 29.2595C112.803 29.4002 112.662 29.4002 112.521 29.4002C112.38 29.4002 112.239 29.4002 112.098 29.2595C111.957 29.1188 111.957 28.9781 111.957 28.8374C111.957 28.6967 111.957 28.556 112.098 28.4154C112.239 28.2747 112.38 28.2747 112.521 28.2747Z" fill="#21263B"/>
  <path d="M116.888 37.2791L119.705 40.6558L118.86 41.3592L115.057 36.8571L121.113 31.9329L121.817 32.777L116.888 36.8571C116.747 36.9978 116.747 36.9978 116.747 37.1385C116.747 37.1385 116.747 37.2791 116.888 37.2791Z" fill="#21263B"/>
  <path d="M121.254 43.0477L123.648 46.8464L122.662 47.4092L119.423 42.3443L126.043 38.1235L129.282 43.1884L128.296 43.7512L125.902 39.9525C125.902 39.8118 125.761 39.8118 125.62 39.8118C125.479 39.8118 125.479 39.8118 125.338 39.8118L124.071 40.656C123.93 40.656 123.93 40.7967 123.93 40.9374C123.93 41.0781 123.93 41.0781 123.93 41.2188L125.62 43.8919L124.634 44.4547L122.944 41.7815C122.944 41.6408 122.803 41.6408 122.662 41.6408C122.522 41.6408 122.522 41.6408 122.381 41.6408L121.113 42.485C120.972 42.485 120.972 42.6257 120.972 42.7664C121.113 42.9071 121.254 43.0477 121.254 43.0477Z" fill="#21263B"/>
  <path d="M130.127 44.8772L132.662 50.2235L131.676 50.6456L130.831 48.8166C130.831 48.6759 130.69 48.6759 130.549 48.6759C130.408 48.6759 130.408 48.6759 130.268 48.6759L124.493 51.349L124.07 50.3642L129.845 47.691C129.986 47.691 129.986 47.5503 129.986 47.4096C129.986 47.269 129.986 47.269 129.986 47.1283L129.141 45.2993L130.127 44.8772Z" fill="#21263B"/>
  <path d="M133.086 51.4895L133.509 52.4743L132.664 52.7557C132.382 52.8964 132.241 52.7557 131.96 52.7557C131.819 52.615 131.537 52.4743 131.537 52.3337L131.396 52.193L131.819 52.0523C131.819 52.193 131.96 52.193 131.96 52.3337C131.96 52.3337 131.96 52.3337 132.1 52.3337C132.1 52.3337 132.241 52.3337 132.1 52.3337L131.96 52.0523L133.086 51.4895Z" fill="#21263B"/>
  <path d="M134.635 64.9956H134.494L134.212 64.0107H134.353C134.635 63.87 134.916 63.7293 135.057 63.4479C135.198 63.1666 135.339 62.8852 135.198 62.6038L133.789 56.8354C133.649 56.554 133.508 56.2727 133.226 56.132C132.944 55.9913 132.663 55.8506 132.381 55.9913C132.099 56.132 131.818 56.2727 131.677 56.554C131.536 56.8354 131.395 57.1168 131.536 57.3982L132.944 63.1666C133.085 63.7293 132.944 64.2921 132.663 64.8549C132.381 65.4176 131.818 65.699 131.254 65.8397C130.691 65.9804 130.127 65.8397 129.564 65.5583C129.001 65.2769 128.719 64.7142 128.578 64.1514L127.17 58.383C127.029 57.8203 127.17 57.2575 127.451 56.6947C127.733 56.132 128.296 55.8506 128.86 55.7099H129.001L129.282 56.6947H129.141C128.86 56.8354 128.578 56.9761 128.437 57.2575C128.296 57.5389 128.155 57.8203 128.296 58.1017L129.705 63.87C129.846 64.1514 129.987 64.4328 130.268 64.5735C130.55 64.7142 130.832 64.8549 131.113 64.7142C131.395 64.5735 131.677 64.4328 131.818 64.1514C131.958 63.87 132.099 63.5886 131.958 63.3072L130.55 57.5389C130.409 56.9761 130.55 56.4134 130.832 55.8506C131.113 55.2878 131.677 55.0064 132.24 54.8657C132.803 54.725 133.367 54.8657 133.93 55.1471C134.494 55.4285 134.775 55.9913 134.916 56.554L136.325 62.3224C136.466 62.8852 136.325 63.4479 136.043 64.0107C135.62 64.4328 135.198 64.8549 134.635 64.9956Z" fill="#21263B"/>
  <path d="M137.029 81.0348V82.1603L129.141 79.9093V79.2058L133.226 77.7989C133.367 77.7989 133.508 77.6582 133.508 77.3768C133.508 77.2361 133.508 77.0954 133.226 76.9547L129.282 75.1258V74.4223L137.17 73.0154V74.1409L132.944 74.8444C132.803 74.8444 132.662 74.9851 132.662 74.9851C132.662 75.1258 132.522 75.1258 132.662 75.2664C132.803 75.4071 132.803 75.4071 132.944 75.5478L137.17 77.5175L132.803 79.0651C132.662 79.0651 132.662 79.2058 132.522 79.3465C132.381 79.4872 132.522 79.6279 132.522 79.6279C132.522 79.7686 132.662 79.7686 132.803 79.9093L137.029 81.0348Z" fill="#21263B"/>
  <path d="M135.057 90.8825C134.775 92.1488 134.212 92.8522 133.367 93.415C132.521 93.8371 131.536 93.9777 130.268 93.6964C129 93.415 128.155 92.8522 127.733 92.0081C127.169 91.1639 127.169 90.1791 127.451 88.9128L128.155 86.3804C128.437 85.1142 129 84.4107 129.845 83.8479C130.69 83.4259 131.676 83.2852 132.944 83.5666C134.212 83.8479 135.057 84.4107 135.479 85.2549C135.902 86.099 136.043 87.0838 135.761 88.3501L135.057 90.8825ZM128.437 89.1942C128.437 89.4756 128.296 89.6163 128.296 89.8977C128.296 90.1791 128.296 90.3198 128.296 90.7418C128.296 91.0232 128.437 91.3046 128.578 91.586C128.719 91.8674 129 92.0081 129.282 92.2894C129.564 92.5708 129.986 92.7115 130.409 92.8522C130.831 92.9929 131.254 92.9929 131.676 92.9929C132.099 92.9929 132.381 92.8522 132.662 92.7115C132.944 92.5708 133.085 92.4301 133.367 92.1488C133.507 91.8674 133.648 91.7267 133.789 91.4453C133.93 91.1639 133.93 91.0232 134.071 90.7418L134.775 88.2094C134.775 87.928 134.916 87.7873 134.916 87.5059C134.916 87.2245 134.916 87.0839 134.916 86.6618C134.916 86.3804 134.775 86.099 134.634 85.8176C134.493 85.5362 134.212 85.3955 133.93 85.1142C133.648 84.8328 133.226 84.6921 132.803 84.5514C132.381 84.4107 131.958 84.4107 131.536 84.4107C131.113 84.4107 130.831 84.5514 130.55 84.6921C130.268 84.8328 130.127 84.9735 129.845 85.2549C129.705 85.5362 129.564 85.6769 129.423 85.9583C129.141 86.2397 129.141 86.3804 129.141 86.6618L128.437 89.1942Z" fill="#21263B"/>
  <path d="M123.507 102.842L121.113 103.686L121.817 102.279L124.071 101.575C124.211 101.575 124.211 101.435 124.352 101.435L126.888 96.3699C126.888 96.2292 126.888 96.2292 126.888 96.0885C126.888 95.9478 126.747 95.9478 126.747 95.8071L125.479 95.2444L125.902 94.2595L132.944 97.7768L129.705 104.389C129.423 105.093 128.859 105.656 128.155 105.937C127.451 106.218 126.747 106.218 126.042 105.937C125.479 105.796 125.057 105.374 124.775 104.952C124.493 104.53 124.211 103.967 124.211 103.404C124.211 103.264 124.071 103.123 124.071 103.123C123.648 102.842 123.507 102.842 123.507 102.842ZM125.197 101.857C124.916 102.279 124.916 102.842 125.057 103.264C125.197 103.686 125.479 104.108 125.902 104.389C126.324 104.671 126.888 104.811 127.451 104.53C128.014 104.389 128.437 104.108 128.578 103.545L131.254 98.1989C131.254 98.0582 131.254 98.0582 131.254 97.9175C131.254 97.7768 131.113 97.7768 131.113 97.6361L128.296 96.2292C128.155 96.2292 128.155 96.2292 128.014 96.2292C127.873 96.2292 127.873 96.3699 127.733 96.3699L125.197 101.857Z" fill="#21263B"/>
  <path d="M122.24 109.033C122.24 108.892 122.24 108.892 122.099 108.752C121.959 108.752 121.959 108.611 121.818 108.752L116.747 109.455L117.592 108.189L121.395 107.626C121.536 107.626 121.677 107.485 121.677 107.345C121.677 107.204 121.677 107.063 121.536 106.923L119.564 105.516L120.268 104.672L126.607 109.314L125.902 110.159L123.93 108.752C123.79 108.611 123.649 108.611 123.508 108.752C123.367 108.892 123.226 109.033 123.367 109.174L123.93 112.972L123.085 114.239L122.24 109.033Z" fill="#21263B"/>
  <path d="M117.873 119.584L113.366 123.523L112.662 122.679L114.211 121.272C114.352 121.132 114.352 121.132 114.352 120.991C114.352 120.85 114.352 120.85 114.211 120.71L109.986 115.926L110.831 115.223L115.056 120.006C115.197 120.147 115.197 120.147 115.338 120.147C115.479 120.147 115.479 120.147 115.62 120.006L117.169 118.599L117.873 119.584Z" fill="#21263B"/>
  <path d="M106.605 128.166C105.619 128.87 104.633 129.01 103.647 128.87C102.661 128.588 101.957 128.026 101.253 126.9C100.548 125.915 100.408 124.79 100.548 123.945C100.689 122.961 101.394 122.257 102.38 121.554L104.633 120.147C105.619 119.443 106.605 119.303 107.591 119.443C108.577 119.725 109.281 120.287 109.985 121.413C110.69 122.539 110.83 123.523 110.69 124.368C110.549 125.352 109.844 126.056 108.859 126.759L106.605 128.166ZM103.084 122.398C102.943 122.539 102.661 122.679 102.52 122.82C102.38 122.961 102.239 123.101 101.957 123.383C101.675 123.664 101.675 123.945 101.675 124.227C101.675 124.508 101.675 124.79 101.675 125.212C101.816 125.634 101.957 125.915 102.239 126.337C102.52 126.759 102.802 127.041 103.084 127.322C103.365 127.603 103.647 127.744 103.929 127.744C104.211 127.744 104.492 127.885 104.774 127.744C105.056 127.744 105.337 127.603 105.478 127.603C105.619 127.463 105.901 127.463 106.042 127.322L108.295 125.915C108.436 125.774 108.718 125.634 108.859 125.493C108.999 125.352 109.14 125.212 109.422 124.93C109.704 124.649 109.704 124.368 109.704 124.086C109.704 123.805 109.704 123.523 109.704 123.101C109.704 122.679 109.422 122.398 109.14 121.976C108.859 121.554 108.577 121.272 108.295 120.991C108.013 120.71 107.732 120.569 107.45 120.569C107.168 120.569 106.887 120.428 106.605 120.569C106.323 120.569 106.042 120.71 105.901 120.71C105.76 120.85 105.478 120.85 105.337 120.991L103.084 122.398Z" fill="#21263B"/>
  <path d="M90.6899 129.995L92.3801 129.432L92.8026 130.417L89.7039 131.402L88.2954 127.603L89.2814 127.181C89.2814 127.322 89.4222 127.322 89.5631 127.463C89.7039 127.463 89.8448 127.463 89.8448 127.322C90.2673 126.9 90.8307 126.618 91.3941 126.337L94.3519 125.212C95.4787 124.79 96.4647 124.79 97.4506 125.212C98.2957 125.634 98.9999 126.478 99.4225 127.603C99.845 128.729 99.845 129.854 99.4225 130.699C98.9999 131.543 98.2957 132.246 97.0281 132.668L94.0702 133.794C93.366 134.075 92.6617 134.216 92.0984 134.075C91.535 134.075 90.9716 133.794 90.4082 133.372L90.2673 133.231L90.6899 132.246L90.8307 132.387C91.535 133.09 92.5209 133.09 93.6477 132.809L96.6055 131.683C96.8872 131.543 97.0281 131.543 97.3098 131.402C97.4506 131.261 97.7323 131.121 97.8731 130.98C98.1548 130.839 98.2957 130.558 98.2957 130.276C98.4365 129.995 98.4365 129.714 98.4365 129.292C98.4365 128.87 98.2957 128.447 98.1548 128.025C98.014 127.603 97.7323 127.181 97.5914 126.9C97.4506 126.618 97.0281 126.337 96.8872 126.337C96.8872 126.196 96.6055 126.196 96.3238 126.196C96.0421 126.196 95.7604 126.196 95.4787 126.196C95.197 126.196 95.0562 126.337 94.7745 126.337L91.8167 127.463C90.9716 127.744 90.2673 128.307 89.9856 129.01C89.9856 129.151 89.9856 129.151 89.9856 129.292L90.1265 129.714C90.1265 129.854 90.2673 129.854 90.2673 129.854C90.549 129.995 90.6899 129.995 90.6899 129.995Z" fill="#21263B"/>
  <path d="M85.4794 129.152L80.9723 129.996L80.8314 129.011L86.7471 127.886L88.1555 135.624L82.2399 136.749L82.0991 135.624L86.6062 134.78C86.7471 134.78 86.7471 134.639 86.8879 134.639C87.0288 134.639 87.0288 134.498 86.8879 134.358L86.6062 132.81C86.6062 132.669 86.4654 132.669 86.4654 132.529C86.3245 132.529 86.3245 132.388 86.1837 132.529L83.085 133.091L82.9441 131.966L86.0428 131.403C86.1837 131.403 86.1837 131.262 86.3245 131.262C86.4654 131.262 86.4654 131.122 86.3245 130.981L86.0428 129.574C86.0428 129.433 85.902 129.433 85.902 129.293C85.902 129.152 85.6203 129.152 85.4794 129.152Z" fill="#21263B"/>
  <path d="M80.5487 136.89L74.6331 137.171V136.046L76.6049 135.905C76.7458 135.905 76.7458 135.905 76.8866 135.764C77.0275 135.624 77.0275 135.624 77.0275 135.483L76.7458 129.152H77.8726L78.1543 135.483C78.1543 135.624 78.1543 135.624 78.2951 135.764C78.436 135.905 78.436 135.905 78.5768 135.905L80.5487 135.764V136.89Z" fill="#21263B"/>
  <path d="M62.8014 136.185L61.8155 136.045L62.6606 128.307L63.6465 128.447L63.3648 131.402C63.3648 131.543 63.3648 131.543 63.5057 131.683C63.5057 131.824 63.6465 131.824 63.7874 131.824L71.2523 132.668C71.3932 132.668 71.3932 132.668 71.534 132.527C71.6749 132.527 71.6749 132.387 71.6749 132.246L71.9566 129.291L72.9425 129.432L72.0974 137.17L71.1115 137.03L71.3932 134.075C71.3932 133.934 71.3932 133.934 71.2523 133.794C71.2523 133.653 71.1115 133.653 70.9706 133.653L63.5057 132.809C63.3648 132.809 63.3648 132.809 63.224 132.949C63.0831 133.09 63.0831 133.09 63.0831 133.231L62.8014 136.185Z" fill="#21263B"/>
  <path d="M59.1397 128.306L54.7734 127.04L55.0551 126.055L60.8299 127.744L58.7172 135.2L52.9424 133.512L53.2241 132.527L57.5904 133.793C57.7312 133.793 57.7312 133.793 57.8721 133.793C58.0129 133.793 58.0129 133.653 58.0129 133.512L58.4355 132.105C58.4355 131.964 58.4355 131.964 58.4355 131.824C58.4355 131.683 58.2946 131.683 58.1538 131.683L55.196 130.839L55.4777 129.854L58.4355 130.698C58.5763 130.698 58.5763 130.698 58.7172 130.698C58.858 130.698 58.858 130.558 58.858 130.417L59.2806 129.01C59.2806 128.869 59.2806 128.869 59.2806 128.729C59.4214 128.447 59.2806 128.447 59.1397 128.306Z" fill="#21263B"/>
  <path d="M45.0552 123.242L44.3509 120.991L45.7594 121.695L46.4637 123.946C46.4637 124.086 46.6045 124.086 46.6045 124.227L51.6751 126.76C51.8159 126.76 51.8159 126.76 51.9568 126.76C52.0976 126.76 52.0976 126.619 52.2385 126.619L52.9427 125.353L53.9286 125.775L50.4074 132.809L43.9284 129.573C43.2242 129.292 42.8016 128.729 42.3791 127.885C42.0974 127.182 42.0974 126.478 42.3791 125.775C42.5199 125.212 42.9425 124.79 43.365 124.509C43.7875 124.227 44.3509 123.946 44.9143 123.946C45.0552 123.946 45.196 123.805 45.196 123.805C45.0552 123.383 45.0552 123.242 45.0552 123.242ZM46.0411 124.931C45.6186 124.649 45.0552 124.649 44.6326 124.79C44.0692 124.931 43.7875 125.212 43.5058 125.634C43.2242 126.056 43.0833 126.619 43.365 127.182C43.5058 127.744 43.7875 128.166 44.3509 128.307L49.7032 130.98C49.844 130.98 49.844 130.98 49.9849 130.98C50.1257 130.98 50.1257 130.84 50.2666 130.84L51.6751 128.026C51.6751 127.885 51.6751 127.885 51.6751 127.744C51.6751 127.604 51.3934 127.604 51.2525 127.604L46.0411 124.931Z" fill="#21263B"/>
  <path d="M36.6033 120.569C36.4624 120.569 36.3216 120.569 36.1807 120.428C36.0399 120.288 36.0399 120.147 36.0399 120.006C36.0399 119.866 36.0399 119.725 36.1807 119.584C36.3216 119.444 36.4624 119.444 36.6033 119.444C36.7441 119.444 36.885 119.444 37.0258 119.584C37.1667 119.725 37.1667 119.866 37.1667 120.006C37.1667 120.147 37.1667 120.288 37.0258 120.428C36.885 120.428 36.7441 120.569 36.6033 120.569Z" fill="#21263B"/>
  <defs>
    <filter id="filter0_i_64_2302" x="30.6824" y="30.6831" width="86.6342" height="86.634" filterUnits="userSpaceOnUse" color-interpolation-filters="sRGB">
      <feFlood flood-opacity="0" result="BackgroundImageFix"/>
      <feBlend mode="normal" in="SourceGraphic" in2="BackgroundImageFix" result="shape"/>
      <feColorMatrix in="SourceAlpha" type="matrix" values="0 0 0 0 0 0 0 0 0 0 0 0 0 0 0 0 0 0 127 0" result="hardAlpha"/>
      <feOffset/>
      <feGaussianBlur stdDeviation="6.44512"/>
      <feComposite in2="hardAlpha" operator="arithmetic" k2="-1" k3="1"/>
      <feColorMatrix type="matrix" values="0 0 0 0 0 0 0 0 0 0 0 0 0 0 0 0 0 0 0.14 0"/>
      <feBlend mode="normal" in2="shape" result="effect1_innerShadow_64_2302"/>
    </filter>
  </defs>
</svg>