<svg width="24" height="24" viewBox="0 0 24 24" fill="none" xmlns="http://www.w3.org/2000/svg">
<g clip-path="url(#clip0_390_103)">
<path d="M12 0C5.34545 0 0 5.34545 0 12C0 18.6545 5.34545 24 12 24C18.6545 24 24 18.6545 24 12C24 5.34545 18.6545 0 12 0ZM18.9273 8.23636L10.2 17.2909C10.0909 17.4 9.98182 17.4545 9.81818 17.4545C9.65455 17.4545 9.49091 17.4 9.43636 17.2909L5.18182 12.7091L5.07273 12.6C4.96364 12.4909 4.90909 12.3273 4.90909 12.2182C4.90909 12.1091 4.96364 11.9455 5.07273 11.8364L5.83636 11.0727C6.05455 10.8545 6.38182 10.8545 6.6 11.0727L6.65455 11.1273L9.65455 14.3455C9.76364 14.4545 9.92727 14.4545 10.0364 14.3455L17.3455 6.76364H17.4C17.6182 6.54545 17.9455 6.54545 18.1636 6.76364L18.9273 7.52727C19.1455 7.69091 19.1455 8.01818 18.9273 8.23636Z" fill="#293F41"/>
<circle cx="12" cy="12" r="12" fill="#82B6A2"/>
<path fill-rule="evenodd" clip-rule="evenodd" d="M10.5907 16.8135L17.8635 9.26806C18.0453 9.08624 18.0453 8.81351 17.8635 8.67715L17.2271 8.04078C17.0453 7.85896 16.7725 7.85896 16.5907 8.04078H16.5453L10.4544 14.359C10.3635 14.4499 10.2271 14.4499 10.1362 14.359L7.63619 11.6771L7.59073 11.6317C7.40891 11.4499 7.13619 11.4499 6.95437 11.6317L6.318 12.2681C6.2271 12.359 6.18164 12.4953 6.18164 12.5862C6.18164 12.6771 6.2271 12.8135 6.318 12.9044L6.40891 12.9953L9.95437 16.8135C9.99982 16.9044 10.1362 16.9499 10.2725 16.9499C10.4089 16.9499 10.4998 16.9044 10.5907 16.8135Z" fill="#293F41"/>
</g>
<defs>
<clipPath id="clip0_390_103">
<rect width="24" height="24" fill="white"/>
</clipPath>
</defs>
</svg>
