<svg xmlns="http://www.w3.org/2000/svg" width="48" height="48" viewBox="0 0 48 48" fill="none">
  <path d="M24 20C32.8366 20 40 16.4183 40 12C40 7.58172 32.8366 4 24 4C15.1634 4 8 7.58172 8 12C8 16.4183 15.1634 20 24 20Z" fill="url(#paint0_linear_390_205)"/>
  <path opacity="0.5" d="M8 24V36C8 40.4183 15.1634 44 24 44C32.8366 44 40 40.4183 40 36V24C40 28.4183 32.8366 32 24 32C15.1634 32 8 28.4183 8 24Z" fill="#F5C17A" stroke="#F1A640" stroke-width="1.5"/>
  <path opacity="0.7" d="M8 12V24C8 28.4183 15.1634 32 24 32C32.8366 32 40 28.4183 40 24V12C40 16.4183 32.8366 20 24 20C15.1634 20 8 16.4183 8 12Z" fill="#F1A640" stroke="#F1A640" stroke-width="1.5"/>
  <defs>
    <linearGradient id="paint0_linear_390_205" x1="8" y1="12" x2="40" y2="12" gradientUnits="userSpaceOnUse">
      <stop stop-color="#E9442F"/>
      <stop offset="1" stop-color="#F29531"/>
    </linearGradient>
  </defs>
</svg>