<svg xmlns="http://www.w3.org/2000/svg" width="48" height="48" viewBox="0 0 48 48" fill="none">
  <path d="M4 40C4 39.1716 4.67157 38.5 5.5 38.5H20H22.5V36V30H25.5V36V38.5H28H42.5C43.3285 38.5 44 39.1716 44 40C44 40.8284 43.3285 41.5 42.5 41.5H28H20H5.5C4.67157 41.5 4 40.8284 4 40Z" fill="#F1A640"/>
  <path fill-rule="evenodd" clip-rule="evenodd" d="M38 19.6V16.7373C38 13.3152 38 11.6042 36.9227 10.492C36.8237 10.3897 36.7188 10.2923 36.6086 10.2003C35.4109 9.2 33.5682 9.2 29.8829 9.2H29.3598C27.7446 9.2 26.9371 9.2 26.1845 9.00081C25.7711 8.89139 25.3726 8.73812 24.997 8.54405C24.3131 8.19077 23.7421 7.66051 22.6 6.6L21.8296 5.88467C21.4469 5.52922 21.2555 5.3515 21.0543 5.19667C20.1871 4.52915 19.1233 4.11997 18.0018 4.02259C17.7417 4 17.471 4 16.9296 4C15.6941 4 15.0763 4 14.5617 4.09016C12.2964 4.48703 10.5245 6.1324 10.0971 8.2359C10 8.71374 10 9.28738 10 10.4347V19.6C10 24.5026 10 26.9539 11.6402 28.477C13.2804 30 15.9203 30 21.2 30H22.5H25.5H26.8C32.0797 30 34.7196 30 36.3598 28.477C38 26.9539 38 24.5026 38 19.6ZM27 13.5C26.1716 13.5 25.5 14.1716 25.5 15C25.5 15.8284 26.1716 16.5 27 16.5H33C33.8284 16.5 34.5 15.8284 34.5 15C34.5 14.1716 33.8284 13.5 33 13.5H27Z" fill="#FCEFDD"/>
  <path d="M22.6 6.6L23.1103 6.05041V6.05041L22.6 6.6ZM24.997 8.54405L25.3412 7.87772L24.997 8.54405ZM26.1845 9.00081L26.3764 8.27578L26.1845 9.00081ZM18.0018 4.02259L17.9369 4.76978L18.0018 4.02259ZM21.8296 5.88467L21.3193 6.43427L21.3193 6.43427L21.8296 5.88467ZM21.0543 5.19667L21.5118 4.60235L21.0543 5.19667ZM36.9227 10.492L37.4615 9.97018L36.9227 10.492ZM36.6086 10.2003L36.1279 10.776L36.6086 10.2003ZM10.0971 8.2359L9.36211 8.08656L10.0971 8.2359ZM14.5617 4.09016L14.4323 3.35141L14.5617 4.09016ZM27 12.75C25.7574 12.75 24.75 13.7574 24.75 15H26.25C26.25 14.5858 26.5858 14.25 27 14.25V12.75ZM33 12.75H27V14.25H33V12.75ZM35.25 15C35.25 13.7574 34.2426 12.75 33 12.75V14.25C33.4142 14.25 33.75 14.5858 33.75 15H35.25ZM33 17.25C34.2426 17.25 35.25 16.2426 35.25 15H33.75C33.75 15.4142 33.4142 15.75 33 15.75V17.25ZM27 17.25H33V15.75H27V17.25ZM24.75 15C24.75 16.2426 25.7574 17.25 27 17.25V15.75C26.5858 15.75 26.25 15.4142 26.25 15H24.75ZM37.25 16.7373V19.6H38.75V16.7373H37.25ZM10.75 19.6V10.4347H9.25V19.6H10.75ZM21.3193 6.43427L22.0897 7.1496L23.1103 6.05041L22.34 5.33508L21.3193 6.43427ZM29.3598 9.95H29.8829V8.45H29.3598V9.95ZM22.0897 7.1496C23.2024 8.18288 23.857 8.79929 24.6527 9.21038L25.3412 7.87772C24.7693 7.58225 24.2818 7.13815 23.1103 6.05041L22.0897 7.1496ZM29.3598 8.45C27.705 8.45 27.0126 8.44417 26.3764 8.27578L25.9926 9.72584C26.8615 9.95583 27.7843 9.95 29.3598 9.95V8.45ZM24.6527 9.21038C25.0774 9.42979 25.527 9.60261 25.9926 9.72584L26.3764 8.27578C26.0151 8.18016 25.6678 8.04645 25.3412 7.87772L24.6527 9.21038ZM16.9296 4.75C17.484 4.75 17.7167 4.75065 17.9369 4.76978L18.0667 3.2754C17.7666 3.24935 17.458 3.25 16.9296 3.25V4.75ZM22.34 5.33508C21.9672 4.98891 21.7468 4.78322 21.5118 4.60235L20.5968 5.79099C20.7642 5.91978 20.9265 6.06953 21.3193 6.43427L22.34 5.33508ZM17.9369 4.76978C18.92 4.85514 19.8466 5.2135 20.5968 5.79099L21.5118 4.60235C20.5276 3.8448 19.3267 3.38481 18.0667 3.2754L17.9369 4.76978ZM21.2 29.25C18.5404 29.25 16.6158 29.2486 15.1482 29.0654C13.6968 28.8842 12.8065 28.5365 12.1505 27.9274L11.1299 29.0265C12.1141 29.9405 13.3639 30.3543 14.9624 30.5538C16.5446 30.7514 18.5799 30.75 21.2 30.75V29.25ZM9.25 19.6C9.25 22.0285 9.24816 23.9311 9.46276 25.4133C9.68137 26.9231 10.1378 28.1053 11.1299 29.0265L12.1505 27.9274C11.5024 27.3256 11.1387 26.5206 10.9473 25.1983C10.7518 23.8485 10.75 22.0741 10.75 19.6H9.25ZM37.25 19.6C37.25 22.0741 37.2482 23.8485 37.0527 25.1983C36.8613 26.5206 36.4975 27.3256 35.8495 27.9274L36.8701 29.0265C37.8622 28.1053 38.3186 26.9231 38.5372 25.4133C38.7518 23.9311 38.75 22.0285 38.75 19.6H37.25ZM26.8 30.75C29.4201 30.75 31.4554 30.7514 33.0376 30.5538C34.6361 30.3543 35.8859 29.9405 36.8701 29.0265L35.8495 27.9274C35.1935 28.5365 34.3032 28.8842 32.8518 29.0654C31.3842 29.2486 29.4596 29.25 26.8 29.25V30.75ZM38.75 16.7373C38.75 15.0474 38.7516 13.7043 38.6086 12.6478C38.4623 11.5674 38.1535 10.6847 37.4615 9.97018L36.384 11.0138C36.7692 11.4115 36.9991 11.9403 37.1221 12.849C37.2484 13.7816 37.25 15.0051 37.25 16.7373H38.75ZM29.8829 9.95C31.7439 9.95 33.0742 9.9512 34.0917 10.07C35.0948 10.1871 35.6885 10.409 36.1279 10.776L37.0894 9.62466C36.331 8.99127 35.4045 8.71306 34.2656 8.5801C33.1409 8.4488 31.7073 8.45 29.8829 8.45V9.95ZM37.4615 9.97018C37.3439 9.84877 37.2197 9.73345 37.0894 9.62466L36.1279 10.776C36.218 10.8512 36.3034 10.9306 36.384 11.0138L37.4615 9.97018ZM10.75 10.4347C10.75 9.25078 10.7538 8.77055 10.8321 8.38524L9.36211 8.08656C9.24622 8.65692 9.25 9.32398 9.25 10.4347H10.75ZM16.9296 3.25C15.7259 3.25 15.0273 3.24716 14.4323 3.35141L14.6912 4.8289C15.1253 4.75284 15.6623 4.75 16.9296 4.75V3.25ZM10.8321 8.38524C11.1925 6.61145 12.7012 5.17754 14.6912 4.8289L14.4323 3.35141C11.8917 3.79653 9.85651 5.65335 9.36211 8.08656L10.8321 8.38524ZM26.8 29.25H25.5V30.75H26.8V29.25ZM22.5 29.25H21.2V30.75H22.5V29.25ZM22.5 30.75H25.5V29.25H22.5V30.75Z" fill="#F1A640"/>
  <circle cx="24" cy="40" r="4" fill="url(#paint0_linear_390_209)"/>
  <defs>
    <linearGradient id="paint0_linear_390_209" x1="20" y1="40" x2="28" y2="40" gradientUnits="userSpaceOnUse">
      <stop stop-color="#E9442F"/>
      <stop offset="1" stop-color="#F29531"/>
    </linearGradient>
  </defs>
</svg>