<svg xmlns="http://www.w3.org/2000/svg" width="48" height="48" viewBox="0 0 48 48" fill="none">
  <path opacity="0.5" fill-rule="evenodd" clip-rule="evenodd" d="M38 23.875V30C38 37.2252 32.5266 43.1721 25.5 43.9206V30C25.5 29.1716 24.8284 28.5 24 28.5C23.1716 28.5 22.5 29.1716 22.5 30V43.9206C15.4734 43.1721 10 37.2252 10 30V23.875C10 20.5403 12.0727 17.6898 15 16.5413C15.8907 16.1919 16.8604 16 17.875 16H30.125C31.1396 16 32.1093 16.1919 33 16.5413C35.9273 17.6898 38 20.5403 38 23.875Z" fill="#F6EBDD" stroke="#F1A640" stroke-width="1.5"/>
  <path d="M38 29.5V26.5H44C44.8284 26.5 45.5 27.1716 45.5 28C45.5 28.8284 44.8284 29.5 44 29.5H38Z" fill="#F1A640"/>
  <path d="M34.991 38.6726C35.6127 37.8858 36.1516 37.0307 36.5948 36.1204L41.6709 38.6588C42.4118 39.0293 42.7121 39.9303 42.3416 40.6713C41.9711 41.4122 41.0701 41.7125 40.3291 41.342L34.991 38.6726Z" fill="#F1A640"/>
  <path d="M11.4052 36.1204C11.8484 37.0307 12.3873 37.8858 13.009 38.6726L7.67089 41.342C6.92994 41.7125 6.02892 41.4122 5.65839 40.6713C5.28787 39.9303 5.58816 39.0293 6.32911 38.6588L11.4052 36.1204Z" fill="#F1A640"/>
  <path d="M10 26.5H4C3.17157 26.5 2.5 27.1716 2.5 28C2.5 28.8284 3.17157 29.5 4 29.5H10V26.5Z" fill="#F1A640"/>
  <path d="M34.7069 17.4694L40.3291 14.658C41.0701 14.2875 41.9711 14.5878 42.3416 15.3287C42.7121 16.0697 42.4118 16.9707 41.6709 17.3412L36.8391 19.7574C36.2875 18.8599 35.5609 18.0814 34.7069 17.4694Z" fill="#F1A640"/>
  <path d="M13.2931 17.4694C12.4391 18.0814 11.7125 18.8599 11.1609 19.7574L6.32911 17.3412C5.58816 16.9707 5.28787 16.0697 5.65839 15.3287C6.02892 14.5878 6.92994 14.2875 7.67089 14.658L13.2931 17.4694Z" fill="#F1A640"/>
  <path d="M33 16.5413V15C33 10.0294 28.9706 6 24 6C19.0294 6 15 10.0294 15 15V16.5413C15.8907 16.1919 16.8604 16 17.875 16H30.125C31.1396 16 32.1093 16.1919 33 16.5413Z" fill="url(#paint0_linear_390_199)"/>
  <g opacity="0.5">
    <path d="M12.7521 3.16811C12.2926 3.8574 12.4788 4.78871 13.1681 5.24823L17.8873 8.39438C18.6904 7.65086 19.6294 7.05198 20.6628 6.63913L14.8322 2.75208C14.1429 2.29256 13.2116 2.47882 12.7521 3.16811Z" fill="#F1A640"/>
    <path d="M30.1128 8.3945C29.3097 7.65097 28.3708 7.05208 27.3374 6.63921L33.1681 2.75208C33.8574 2.29256 34.7887 2.47882 35.2482 3.16811C35.7078 3.8574 35.5215 4.78871 34.8322 5.24823L30.1128 8.3945Z" fill="#F1A640"/>
  </g>
  <path fill-rule="evenodd" clip-rule="evenodd" d="M24 28.5C24.8284 28.5 25.5 29.1716 25.5 30V44H22.5V30C22.5 29.1716 23.1716 28.5 24 28.5Z" fill="url(#paint1_linear_390_199)"/>
  <defs>
    <linearGradient id="paint0_linear_390_199" x1="15" y1="11.2706" x2="33" y2="11.2706" gradientUnits="userSpaceOnUse">
      <stop stop-color="#E9442F"/>
      <stop offset="1" stop-color="#F29531"/>
    </linearGradient>
    <linearGradient id="paint1_linear_390_199" x1="22.5" y1="36.25" x2="25.5" y2="36.25" gradientUnits="userSpaceOnUse">
      <stop stop-color="#E9442F"/>
      <stop offset="1" stop-color="#F29531"/>
    </linearGradient>
  </defs>
</svg>